<?xml version="1.0" encoding="UTF-8" standalone="no"?>
<!-- Created with Inkscape (http://www.inkscape.org/) -->

<svg
   xmlns:osb="http://www.openswatchbook.org/uri/2009/osb"
   xmlns:dc="http://purl.org/dc/elements/1.1/"
   xmlns:cc="http://creativecommons.org/ns#"
   xmlns:rdf="http://www.w3.org/1999/02/22-rdf-syntax-ns#"
   xmlns:svg="http://www.w3.org/2000/svg"
   xmlns="http://www.w3.org/2000/svg"
   xmlns:xlink="http://www.w3.org/1999/xlink"
   xmlns:sodipodi="http://sodipodi.sourceforge.net/DTD/sodipodi-0.dtd"
   xmlns:inkscape="http://www.inkscape.org/namespaces/inkscape"
   inkscape:export-ydpi="96"
   inkscape:export-xdpi="96"
   inkscape:export-filename="C:\dev\quadrat\src\view\power\parasite.png"
   sodipodi:docname="piece_qr.svg"
   inkscape:version="0.92.2 (5c3e80d, 2017-08-06)"
   id="svg8"
   version="1.1"
   viewBox="0 0 67.733332 67.733332"
   height="256"
   width="256">
  <sodipodi:namedview
     inkscape:snap-center="true"
     inkscape:guide-bbox="true"
     showguides="true"
     inkscape:snap-global="true"
     inkscape:snap-others="true"
     inkscape:snap-nodes="false"
     showborder="false"
     units="px"
     inkscape:window-maximized="1"
     inkscape:window-y="-8"
     inkscape:window-x="-8"
     inkscape:window-height="1147"
     inkscape:window-width="1600"
     showgrid="false"
     inkscape:current-layer="layer2"
     inkscape:document-units="px"
     inkscape:cy="5.9517501"
     inkscape:cx="-41.70082"
     inkscape:zoom="2"
     inkscape:pageshadow="2"
     inkscape:pageopacity="0.0"
     borderopacity="1.0"
     bordercolor="#666666"
     pagecolor="#ffffff"
     id="base" />
  <defs
     id="defs2">
    <inkscape:path-effect
       effect="fill_between_strokes"
       id="path-effect24290"
       is_visible="true"
       linkedpath=""
       secondpath=""
       reversesecond="false" />
    <linearGradient
       id="linearGradient24268"
       osb:paint="solid">
      <stop
         style="stop-color:#000000;stop-opacity:1;"
         offset="0"
         id="stop24266" />
    </linearGradient>
    <linearGradient
       osb:paint="solid"
       id="linearGradient6948">
      <stop
         id="stop6946"
         offset="0"
         style="stop-color:#000000;stop-opacity:1;" />
    </linearGradient>
    <marker
       inkscape:isstock="true"
       style="overflow:visible;"
       id="marker6602"
       refX="0.0"
       refY="0.0"
       orient="auto"
       inkscape:stockid="Arrow1Lend">
      <path
         transform="scale(0.8) rotate(180) translate(12.5,0)"
         style="fill-rule:evenodd;stroke:none;stroke-width:1pt;stroke-opacity:1;fill:#808080;fill-opacity:1"
         d="M 0.0,0.0 L 5.0,-5.0 L -12.5,0.0 L 5.0,5.0 L 0.0,0.0 z "
         id="path6600" />
    </marker>
    <marker
       inkscape:isstock="true"
       style="overflow:visible;"
       id="Arrow1Lend"
       refX="0.0"
       refY="0.0"
       orient="auto"
       inkscape:stockid="Arrow1Lend">
      <path
         transform="scale(0.8) rotate(180) translate(12.5,0)"
         style="fill-rule:evenodd;stroke:none;stroke-width:1pt;stroke-opacity:1;fill:#808080;fill-opacity:1"
         d="M 0.0,0.0 L 5.0,-5.0 L -12.5,0.0 L 5.0,5.0 L 0.0,0.0 z "
         id="path6090" />
    </marker>
    <marker
       inkscape:isstock="true"
       style="overflow:visible"
       id="SquareL"
       refX="0.0"
       refY="0.0"
       orient="auto"
       inkscape:stockid="SquareL">
      <path
         transform="scale(0.8)"
         style="fill-rule:evenodd;stroke:#000000;stroke-width:1pt;stroke-opacity:1;fill:#808080;fill-opacity:1"
         d="M -5.0,-5.0 L -5.0,5.0 L 5.0,5.0 L 5.0,-5.0 L -5.0,-5.0 z "
         id="path6157" />
    </marker>
    <marker
       inkscape:isstock="true"
       style="overflow:visible"
       id="SquareM"
       refX="0.0"
       refY="0.0"
       orient="auto"
       inkscape:stockid="SquareM">
      <path
         transform="scale(0.4)"
         style="fill-rule:evenodd;stroke:none;stroke-width:1pt;stroke-opacity:1;fill:#808080;fill-opacity:1"
         d="M -5.0,-5.0 L -5.0,5.0 L 5.0,5.0 L 5.0,-5.0 L -5.0,-5.0 z "
         id="path6160" />
    </marker>
    <inkscape:path-effect
       reversesecond="false"
       secondpath=""
       linkedpath=""
       is_visible="true"
       id="path-effect6382"
       effect="fill_between_strokes" />
    <inkscape:path-effect
       bendpath-nodetypes="cc"
       vertical="false"
       scale_y_rel="false"
       prop_scale="1"
       bendpath="m -11.743476,-27.353608 c 2.739457,1.505243 5.623648,-0.540436 7.9375001,0"
       is_visible="true"
       id="path-effect6380"
       effect="bend_path" />
    <marker
       inkscape:isstock="true"
       style="overflow:visible"
       id="Arrow1Lstart"
       refX="0.0"
       refY="0.0"
       orient="auto"
       inkscape:stockid="Arrow1Lstart">
      <path
         transform="scale(0.8) translate(12.5,0)"
         style="fill-rule:evenodd;stroke:none;stroke-width:1pt;stroke-opacity:1;fill:#8693b0;fill-opacity:1"
         d="M 0.0,0.0 L 5.0,-5.0 L -12.5,0.0 L 5.0,5.0 L 0.0,0.0 z "
         id="path6087" />
    </marker>
    <linearGradient
       osb:paint="solid"
       id="linearGradient6083">
      <stop
         id="stop6081"
         offset="0"
         style="stop-color:#000000;stop-opacity:1;" />
    </linearGradient>
    <linearGradient
       osb:paint="solid"
       id="linearGradient6077">
      <stop
         id="stop6075"
         offset="0"
         style="stop-color:#000000;stop-opacity:1;" />
    </linearGradient>
    <linearGradient
       id="linearGradient932"
       inkscape:collect="always">
      <stop
         id="stop928"
         offset="0"
         style="stop-color:#c6c6c6;stop-opacity:1" />
      <stop
         id="stop930"
         offset="1"
         style="stop-color:#ffffff;stop-opacity:1" />
    </linearGradient>
    <inkscape:path-effect
       fuse_tolerance="0"
       vertical_pattern="false"
       prop_units="false"
       tang_offset="0"
       normal_offset="0"
       spacing="0"
       scale_y_rel="false"
       prop_scale="0.26458333"
       copytype="single_stretched"
       pattern="M 0,5 C 0,2.24 2.24,0 5,0 7.76,0 10,2.24 10,5 10,7.76 7.76,10 5,10 2.24,10 0,7.76 0,5 Z"
       is_visible="true"
       id="path-effect1635"
       effect="skeletal" />
    <inkscape:path-effect
       is_visible="true"
       id="path-effect1633"
       effect="spiro" />
    <linearGradient
       inkscape:collect="always"
       id="linearGradient1629">
      <stop
         style="stop-color:#8693b0;stop-opacity:1"
         offset="0"
         id="stop1625" />
      <stop
         style="stop-color:#171717;stop-opacity:1"
         offset="1"
         id="stop1627" />
    </linearGradient>
    <linearGradient
       inkscape:collect="always"
       id="linearGradient5200">
      <stop
         style="stop-color:#ad0000;stop-opacity:1"
         offset="0"
         id="stop5196" />
      <stop
         style="stop-color:#ff9100;stop-opacity:0.47843137"
         offset="1"
         id="stop5198" />
    </linearGradient>
    <inkscape:path-effect
       effect="skeletal"
       id="path-effect5192"
       is_visible="true"
       pattern="m -13.042563,88.811741 2.457608,11.660409 1.0442155,-11.892934 -3.3277875,10.007069 z"
       copytype="repeated_stretched"
       prop_scale="1.5817257"
       scale_y_rel="false"
       spacing="0"
       normal_offset="0"
       tang_offset="0"
       prop_units="false"
       vertical_pattern="false"
       fuse_tolerance="0" />
    <linearGradient
       id="linearGradient5186"
       inkscape:collect="always">
      <stop
         id="stop5182"
         offset="0"
         style="stop-color:#00b915;stop-opacity:1" />
      <stop
         id="stop5184"
         offset="1"
         style="stop-color:#00a2ff;stop-opacity:0.47963801" />
    </linearGradient>
    <inkscape:path-effect
       fuse_tolerance="0"
       vertical_pattern="false"
       prop_units="false"
       tang_offset="0"
       normal_offset="0"
       spacing="0"
       scale_y_rel="false"
       prop_scale="1.5819016"
       copytype="repeated_stretched"
       pattern="m -13.074965,88.779146 2.457608,11.660414 1.0442155,-11.892939 -3.3277875,10.007069 z"
       is_visible="true"
       id="path-effect5111"
       effect="skeletal" />
    <inkscape:path-effect
       pattern-nodetypes="cc"
       fuse_tolerance="0"
       vertical_pattern="false"
       prop_units="false"
       tang_offset="0"
       normal_offset="0"
       spacing="0"
       scale_y_rel="false"
       prop_scale="1.1503327"
       copytype="repeated_stretched"
       pattern="m -3.6918604,-9.721899 3.95348832,8.6143409"
       is_visible="true"
       id="path-effect5078"
       effect="skeletal" />
    <inkscape:path-effect
       fuse_tolerance="0"
       vertical_pattern="false"
       prop_units="false"
       tang_offset="0"
       normal_offset="0"
       spacing="0"
       scale_y_rel="false"
       prop_scale="1"
       copytype="single_stretched"
       pattern="M 0,0 H 1"
       is_visible="true"
       id="path-effect5065"
       effect="skeletal" />
    <inkscape:path-effect
       fuse_tolerance="0"
       vertical_pattern="false"
       prop_units="false"
       tang_offset="0"
       normal_offset="0"
       spacing="0"
       scale_y_rel="false"
       prop_scale="1000000"
       copytype="repeated_stretched"
       pattern="M 0,0 H 1"
       is_visible="true"
       id="path-effect5038"
       effect="skeletal" />
    <linearGradient
       inkscape:collect="always"
       id="linearGradient4700">
      <stop
         style="stop-color:#ffffff;stop-opacity:1"
         offset="0"
         id="stop4696" />
      <stop
         style="stop-color:#fdfdfd;stop-opacity:0.33054394"
         offset="1"
         id="stop4698" />
    </linearGradient>
    <linearGradient
       inkscape:collect="always"
       id="linearGradient4668">
      <stop
         style="stop-color:#fdfdfd;stop-opacity:0"
         offset="0"
         id="stop4664" />
      <stop
         style="stop-color:#050505;stop-opacity:1"
         offset="1"
         id="stop4666" />
    </linearGradient>
    <linearGradient
       inkscape:collect="always"
       id="linearGradient4644">
      <stop
         style="stop-color:#f1f1f1;stop-opacity:0.51046026"
         offset="0"
         id="stop4640" />
      <stop
         style="stop-color:#ffffff;stop-opacity:0"
         offset="1"
         id="stop4642" />
    </linearGradient>
    <linearGradient
       id="linearGradient4628"
       inkscape:collect="always">
      <stop
         id="stop4624"
         offset="0"
         style="stop-color:#000000;stop-opacity:0" />
      <stop
         id="stop4626"
         offset="1"
         style="stop-color:#000000;stop-opacity:0.38912135" />
    </linearGradient>
    <linearGradient
       inkscape:collect="always"
       id="linearGradient4613">
      <stop
         style="stop-color:#38ff10;stop-opacity:1"
         offset="0"
         id="stop4609" />
      <stop
         style="stop-color:#145100;stop-opacity:0.98823529"
         offset="1"
         id="stop4611" />
    </linearGradient>
    <linearGradient
       inkscape:collect="always"
       id="linearGradient4607">
      <stop
         style="stop-color:#111111;stop-opacity:1"
         offset="0"
         id="stop4603" />
      <stop
         style="stop-color:#ffffff;stop-opacity:1"
         offset="1"
         id="stop4605" />
    </linearGradient>
    <linearGradient
       id="linearGradient4587"
       inkscape:collect="always">
      <stop
         id="stop4583"
         offset="0"
         style="stop-color:#dbdbdb;stop-opacity:1" />
      <stop
         id="stop4585"
         offset="1"
         style="stop-color:#050505;stop-opacity:1" />
    </linearGradient>
    <radialGradient
       inkscape:collect="always"
       xlink:href="#linearGradient4587"
       id="radialGradient4581"
       gradientUnits="userSpaceOnUse"
       gradientTransform="matrix(4.2231987,-6.9026002e-4,6.1694356e-4,3.7734954,-158.50325,13.122478)"
       cx="53.88459"
       cy="-11.164368"
       fx="53.88459"
       fy="-11.164368"
       r="33.998959" />
    <radialGradient
       inkscape:collect="always"
       xlink:href="#linearGradient4607"
       id="radialGradient4601"
       cx="68.534081"
       cy="-29.486176"
       fx="68.534081"
       fy="-29.486176"
       r="15.478125"
       gradientUnits="userSpaceOnUse"
       gradientTransform="matrix(4.4790333,0.07087943,-0.02531924,1.5999814,-238.70438,12.797404)" />
    <radialGradient
       inkscape:collect="always"
       xlink:href="#linearGradient4613"
       id="radialGradient4615"
       cx="68.845184"
       cy="-26.746691"
       fx="68.845184"
       fy="-26.746691"
       r="14.287499"
       gradientUnits="userSpaceOnUse"
       gradientTransform="matrix(2.4696938,-0.00862621,0.00793321,2.271273,-101.07921,26.977423)" />
    <radialGradient
       inkscape:collect="always"
       xlink:href="#linearGradient4628"
       id="radialGradient4622"
       gradientUnits="userSpaceOnUse"
       gradientTransform="matrix(2.2623593,0.01370126,-0.01337073,2.2077849,-87.228719,24.086629)"
       cx="68.988297"
       cy="-21.271061"
       fx="68.988297"
       fy="-21.271061"
       r="14.287499" />
    <filter
       inkscape:collect="always"
       style="color-interpolation-filters:sRGB"
       id="filter4634"
       x="-0.0035999999"
       width="1.0072"
       y="-0.0035999999"
       height="1.0072">
      <feGaussianBlur
         inkscape:collect="always"
         stdDeviation="0.046434374"
         id="feGaussianBlur4636" />
    </filter>
    <linearGradient
       inkscape:collect="always"
       xlink:href="#linearGradient4644"
       id="linearGradient4646"
       x1="69.20459"
       y1="55.329666"
       x2="69.298134"
       y2="22.963326"
       gradientUnits="userSpaceOnUse"
       gradientTransform="matrix(1,0,0,-0.76468416,-0.18708867,-12.07598)" />
    <radialGradient
       inkscape:collect="always"
       xlink:href="#linearGradient4668"
       id="radialGradient4662"
       gradientUnits="userSpaceOnUse"
       gradientTransform="matrix(1.200947,-0.00768595,0.00760365,1.1880931,6.1575309,-18.988483)"
       cx="52.23645"
       cy="-3.9797671"
       fx="52.23645"
       fy="-3.9797671"
       r="33.998959" />
    <radialGradient
       inkscape:collect="always"
       xlink:href="#linearGradient4700"
       id="radialGradient4702"
       cx="68.923958"
       cy="-21.43125"
       fx="68.923958"
       fy="-21.43125"
       r="28.091982"
       gradientUnits="userSpaceOnUse" />
    <filter
       inkscape:collect="always"
       style="color-interpolation-filters:sRGB"
       id="filter4816"
       x="-0.099600002"
       width="1.1992"
       y="-0.099600002"
       height="1.1992">
      <feGaussianBlur
         inkscape:collect="always"
         stdDeviation="2.3316345"
         id="feGaussianBlur4818" />
    </filter>
    <filter
       id="filter4958"
       style="color-interpolation-filters:sRGB;"
       inkscape:label="Rough Paper"
       inkscape:menu="Textures"
       inkscape:menu-tooltip="Aquarelle paper effect which can be used for pictures as for objects"
       width="1.3"
       x="-0.15"
       height="1.3"
       y="-0.15">
      <feTurbulence
         id="feTurbulence4944"
         result="result4"
         seed="0"
         numOctaves="5"
         baseFrequency="0.04"
         type="fractalNoise" />
      <feDisplacementMap
         id="feDisplacementMap4946"
         result="result3"
         scale="10"
         xChannelSelector="R"
         yChannelSelector="G"
         in2="result4"
         in="SourceGraphic" />
      <feDiffuseLighting
         id="feDiffuseLighting4950"
         in="result4"
         result="result1"
         surfaceScale="2"
         diffuseConstant="1"
         lighting-color="rgb(233,230,215)">
        <feDistantLight
           id="feDistantLight4948"
           elevation="40"
           azimuth="235" />
      </feDiffuseLighting>
      <feComposite
         id="feComposite4952"
         result="result2"
         in2="result1"
         in="result3"
         operator="in" />
      <feComposite
         id="feComposite4954"
         k1="1.7"
         operator="arithmetic"
         result="result5"
         in2="result1" />
      <feBlend
         id="feBlend4956"
         mode="normal"
         in2="result3"
         in="result5" />
    </filter>
    <radialGradient
       gradientUnits="userSpaceOnUse"
       gradientTransform="matrix(1.4401962,-0.01948212,0.02080422,1.5302714,-92.097144,108.44246)"
       r="37.082887"
       fy="-25.710361"
       fx="64.296654"
       cy="-25.710361"
       cx="64.296654"
       id="radialGradient5188"
       xlink:href="#linearGradient5200"
       inkscape:collect="always" />
    <radialGradient
       r="37.082887"
       fy="-25.710361"
       fx="64.296654"
       cy="-25.710361"
       cx="64.296654"
       gradientTransform="matrix(1.4350553,-0.01954744,0.02072996,1.5354015,-91.856725,108.49815)"
       gradientUnits="userSpaceOnUse"
       id="radialGradient5194"
       xlink:href="#linearGradient5186"
       inkscape:collect="always" />
    <filter
       id="filter1377"
       style="color-interpolation-filters:sRGB;"
       inkscape:menu-tooltip="Metallized effect with a soft lighting, slightly translucent at the edges"
       inkscape:menu="Materials"
       inkscape:label="Metallized Paint">
      <feGaussianBlur
         id="feGaussianBlur1351"
         result="result1"
         stdDeviation="1" />
      <feComposite
         id="feComposite1353"
         operator="in"
         result="result4"
         in2="result1"
         in="result1" />
      <feBlend
         id="feBlend1355"
         in2="result4"
         result="result5"
         mode="screen"
         in="result1" />
      <feGaussianBlur
         id="feGaussianBlur1357"
         in="result5"
         result="result6"
         stdDeviation="8" />
      <feComposite
         id="feComposite1359"
         result="result8"
         in2="result5"
         in="result6"
         operator="atop" />
      <feComposite
         id="feComposite1361"
         in2="result8"
         in="result6"
         result="fbSourceGraphic"
         operator="in" />
      <feGaussianBlur
         id="feGaussianBlur1363"
         stdDeviation="2.5"
         in="fbSourceGraphic"
         result="result0" />
      <feSpecularLighting
         id="feSpecularLighting1367"
         in="result0"
         result="result1"
         lighting-color="rgb(255,255,255)"
         surfaceScale="1"
         specularConstant="1.5"
         specularExponent="45">
        <fePointLight
           id="fePointLight1365"
           x="-6000"
           y="-9000"
           z="21000" />
      </feSpecularLighting>
      <feComposite
         id="feComposite1369"
         in2="fbSourceGraphic"
         in="result1"
         result="result2"
         operator="in" />
      <feComposite
         id="feComposite1371"
         in2="result2"
         in="fbSourceGraphic"
         result="result4"
         operator="arithmetic"
         k2="1"
         k3="1" />
      <feComposite
         id="feComposite1373"
         result="result91"
         in2="result4"
         in="result9"
         operator="in" />
      <feBlend
         id="feBlend1375"
         in2="result91"
         mode="multiply" />
    </filter>
    <radialGradient
       r="33.998959"
       fy="-8.1332703"
       fx="53.625938"
       cy="-8.1332703"
       cx="53.625938"
       gradientTransform="matrix(7.6956967,-0.03534571,0.03031863,6.6011511,-413.97219,306.90554)"
       gradientUnits="userSpaceOnUse"
       id="radialGradient1449"
       xlink:href="#linearGradient1629"
       inkscape:collect="always" />
    <linearGradient
       gradientUnits="userSpaceOnUse"
       y2="106.73621"
       x2="43.162601"
       y1="50.940086"
       x1="-38.015858"
       id="linearGradient926"
       xlink:href="#linearGradient932"
       inkscape:collect="always" />
    <marker
       id="marker4606"
       orient="auto"
       refY="4.7483888"
       refX="4.7483888"
       markerHeight="9.4967775"
       markerWidth="9.4967775">
      <path
         style="opacity:1;fill:#808080;fill-opacity:1;stroke:none;stroke-width:0.50322419;stroke-miterlimit:4;stroke-dasharray:0.50322415, 0.50322415;stroke-dashoffset:0"
         d="M 0,0 H 9.4967775 V 9.4967775 H 0 Z"
         id="rect6440"
         inkscape:connector-curvature="0" />
    </marker>
  </defs>
  <metadata
     id="metadata5">
    <rdf:RDF>
      <cc:Work
         rdf:about="">
        <dc:format>image/svg+xml</dc:format>
        <dc:type
           rdf:resource="http://purl.org/dc/dcmitype/StillImage" />
        <dc:title />
      </cc:Work>
    </rdf:RDF>
  </metadata>
  <g
     style="display:none"
     inkscape:label="cell"
     id="layer1"
     inkscape:groupmode="layer"
     sodipodi:insensitive="true">
    <rect
       inkscape:export-ydpi="96"
       inkscape:export-xdpi="96"
       inkscape:export-filename="C:\dev\quadrat\src\battle\cell_1_s.png"
       y="34.122784"
       x="-33.61055"
       height="67.2211"
       width="67.2211"
       id="rect916"
       style="display:inline;opacity:1;fill:url(#linearGradient926);fill-opacity:1;stroke:#666666;stroke-width:0.2;stroke-miterlimit:4;stroke-dasharray:0.2, 0.2;stroke-dashoffset:0" />
  </g>
  <path
     sodipodi:insensitive="true"
     inkscape:label="ability_red"
     inkscape:export-ydpi="24.081503"
     inkscape:export-xdpi="24.081503"
     inkscape:export-filename="C:\dev\quadrat\src\battle\ability_red.png"
     sodipodi:nodetypes="sssss"
     inkscape:connector-curvature="0"
     inkscape:original-d="M 24.332122,67.845991 C 23.670622,51.105111 15.96197,43.49014 -0.0322275,43.542394 c -15.3547305,0.05016 -24.4558595,5.981967 -24.3643445,24.303597 0.09705,19.428645 9.009615,24.037662 24.3643445,24.303597 15.9918755,0.276969 25.0066595,-8.04808 24.3643495,-24.303597 z"
     inkscape:path-effect="#path-effect5111"
     id="path5099"
     d="m 15.300272,68.202876 c 6.105155,-0.945444 12.215232,-2.126484 18.267035,-3.639243 -6.294625,0.118079 -12.583194,0.370721 -18.855224,0.77631 5.34463,0.303324 10.715834,1.043393 16.032112,2.05828 -5.148495,0.283312 -10.296552,0.551391 -15.443923,0.804653 z m -0.221986,-2.902842 c 6.053068,-1.320814 12.048924,-2.967282 17.92437,-5.035524 -6.256498,0.630713 -12.483882,1.43732 -18.671672,2.438205 5.320105,-0.258908 10.720107,0.03482 16.118505,0.719262 -5.120909,0.646663 -10.244727,1.272543 -15.371203,1.878057 z m -0.387198,-2.670612 c 5.903464,-1.819159 11.687582,-4.05403 17.289154,-6.800733 -6.144863,1.284223 -12.237555,2.78567 -18.267595,4.522726 5.251628,-0.950329 10.636476,-1.232129 16.073045,-1.007328 -5.025364,1.121305 -10.056982,2.216279 -15.094604,3.285335 z m -0.629198,-2.39268 c 1.060627,-0.457617 2.114872,-0.933017 3.16232,-1.426834 4.541693,-2.125848 8.953946,-4.638111 13.132128,-7.553348 -5.939527,2.109074 -11.771245,4.490111 -17.459695,7.151054 4.558954,-1.668156 9.427766,-2.67662 14.377674,-3.08927 0.466419,-0.04072 0.93367,-0.07672 1.401701,-0.108091 -4.861859,1.70724 -9.733318,3.382598 -14.614128,5.026489 z m -0.836657,-1.995545 c 5.282748,-3.20936 10.219846,-7.023501 14.616216,-11.473301 -5.491297,3.06319 -10.795663,6.416845 -15.87764,10.068911 4.509791,-2.759905 9.599403,-4.663551 14.969055,-5.794652 -4.548747,2.437263 -9.118229,4.83689 -13.707631,7.199042 z m -0.969187,-1.626429 c 4.388257,-3.819796 8.30088,-8.203054 11.572866,-13.175891 0.186194,-0.284295 0.370187,-0.570279 0.551983,-0.857922 -4.788184,4.09601 -9.278358,8.48534 -13.472325,13.132153 1.343346,-1.299857 2.779094,-2.510876 4.30722,-3.619436 2.801889,-2.032347 5.888706,-3.691927 9.179588,-5.001321 -4.015068,3.21389 -8.061783,6.387974 -12.139332,9.522417 z M 11.147884,55.434631 C 14.866082,50.530405 17.841634,45.05323 20.096664,39.196879 16.281329,44.190536 12.760721,49.397342 9.5330365,54.78146 12.61721,50.449153 16.447192,46.610126 21.022476,43.571727 17.772723,47.560329 14.481212,51.514903 11.147884,55.434631 Z M 9.7131444,54.460705 C 12.340463,48.892284 14.250288,42.934699 15.464744,36.781724 12.618758,42.403651 10.064215,48.158556 7.7993123,54.010602 10.139261,49.248298 13.232954,44.763136 17.079887,40.862464 14.665265,45.418555 12.209704,49.951574 9.7131444,54.460705 Z M 7.9213009,53.663307 c 0.3314606,-1.244983 0.6328318,-2.498893 0.904314,-3.759972 1.0165729,-4.793647 1.6373661,-9.67029 1.9199881,-14.598757 -1.9279794,5.974508 -3.6156518,12.014647 -5.0836137,18.10752 1.5970596,-4.5108 3.6404442,-8.882143 6.2537237,-13.027418 0.298021,-0.468205 0.603909,-0.932926 0.917663,-1.393841 -1.597218,4.903211 -3.2345565,9.794306 -4.9120751,14.672468 z M 5.7345226,53.052086 C 6.3921532,46.926199 6.5056469,40.712039 6.1911684,34.472465 4.9999121,40.645181 4.0031769,46.854262 3.1803666,53.08681 4.4851344,47.89219 6.226035,42.782155 8.5735163,37.876171 7.6577553,42.941149 6.7115829,47.999882 5.7345226,53.052086 Z m -2.52121,-0.332084 C 3.1412917,46.537816 2.6369271,40.324661 1.8163835,34.143395 1.210931,40.411803 0.75421387,46.687308 0.42563616,52.957017 1.3720556,47.695806 2.6376829,42.430961 4.3929659,37.281945 4.0239177,42.43051 3.6308588,47.576623 3.2133126,52.720002 Z M 0.42815489,52.588912 C 0.29416361,51.290046 0.14595362,49.992348 -0.01538985,48.696405 -0.63170971,43.849469 -1.3886226,38.996532 -2.3405579,34.166598 -2.5222075,40.457511 -2.5796973,46.750191 -2.4920227,53.0351 c 0.5233371,-4.775067 1.3822628,-9.553041 2.44414962,-14.281823 0.12415912,-0.546115 0.2521035,-1.092068 0.38402071,-1.637726 0.048438,5.156539 0.0792659,10.314421 0.0920073,15.473361 z m -2.94175919,0.07846 c -1.0268863,-6.109685 -2.3600553,-12.183 -4.1101595,-18.160981 0.3035437,6.281518 0.7784139,12.543915 1.4456153,18.777655 0.032049,-5.328246 0.6125278,-10.706374 1.5575247,-16.062145 0.388593,5.146893 0.7574413,10.295459 1.1070195,15.445471 z m -2.7185195,0.253113 c -1.5063824,-5.992404 -3.4230124,-11.890019 -5.8605432,-17.63388 0.948996,6.206447 2.1164852,12.372888 3.5234722,18.489786 -0.6641056,-5.296922 -0.6486604,-10.689996 -0.1375749,-16.10698 0.850827,5.079017 1.6755508,10.162785 2.4746459,15.251074 z m -2.4325956,0.500873 c -0.2831304,-0.768839 -0.575354,-1.534968 -0.876931,-2.29825 -1.9473086,-4.977394 -4.3420166,-9.842704 -7.2230176,-14.4555 1.792256,6.045584 3.868195,11.994665 6.2412862,17.808378 -1.5119012,-4.833265 -2.2579222,-9.985843 -2.3531252,-15.174195 -0.0058,-0.249603 -0.01017,-0.499361 -0.01327,-0.749267 1.440656,4.948529 2.8488506,9.904883 4.2250576,14.868834 z m -2.0081617,0.717979 C -12.598817,48.692942 -16.164151,43.573143 -20.428553,38.995404 c 2.802857,5.626436 5.920326,11.069744 9.365875,16.291058 -2.600024,-4.599345 -4.257463,-9.775803 -5.104801,-15.202903 2.204782,4.665845 4.369552,9.351403 6.4945979,14.05578 z m -1.5993749,0.846021 c -3.122484,-3.938621 -6.707484,-7.520944 -10.787637,-10.629121 -0.906248,-0.687253 -1.834299,-1.348987 -2.782841,-1.985334 3.931888,4.918116 8.183632,9.532532 12.71522,13.844746 -1.607867,-1.736063 -3.06185,-3.622773 -4.331043,-5.659682 -1.566007,-2.514465 -2.832432,-5.228895 -3.821516,-8.088479 3.046355,4.141211 6.048865,8.314132 9.007817,12.51787 z m -1.126727,0.983456 c -4.778113,-3.867129 -10.184637,-6.973042 -16.003044,-9.339652 4.905843,3.926993 10.04204,7.552802 15.368578,10.878924 -4.285899,-3.150997 -8.047302,-7.063387 -10.941276,-11.732207 3.895964,3.354943 7.754849,6.75257 11.575742,10.192935 z m -0.951794,1.35299 c -5.509686,-2.746256 -11.442356,-4.756731 -17.58148,-6.053335 5.579176,2.935918 11.299204,5.573168 17.12007,7.913248 -4.73039,-2.390505 -9.177338,-5.554354 -12.997911,-9.486582 4.511587,2.500278 8.998332,5.042483 13.459321,7.626669 z m -0.807018,1.733197 c -0.980432,-0.277069 -1.966772,-0.534848 -2.958051,-0.773436 -5.032664,-1.187045 -10.162808,-1.931935 -15.355409,-2.302462 5.944546,2.009164 11.957247,3.779588 18.025711,5.331935 -4.646574,-1.719585 -9.136199,-3.913728 -13.376034,-6.720445 -0.315343,-0.211531 -0.628944,-0.426822 -0.940689,-0.645871 4.881067,1.662238 9.749529,3.365646 14.604472,5.110279 z m -0.646521,2.17853 c -6.11294,-0.741818 -12.320838,-0.942538 -18.563584,-0.718521 6.152676,1.278234 12.345363,2.363676 18.565668,3.276989 -5.1773,-1.381665 -10.258609,-3.193712 -15.128728,-5.607395 5.048971,0.985948 10.091276,2.002098 15.126644,3.048927 z m -0.364182,2.520232 c -6.180348,-0.01573 -12.400968,0.397717 -18.60175,1.12398 6.262039,0.698874 12.535946,1.250903 18.809325,1.676751 -5.257836,-1.031223 -10.504921,-2.375233 -15.626058,-4.203282 5.14261,0.443574 10.282195,0.910932 15.418483,1.402551 z m -0.160906,2.792581 c -3.735484,0.329388 -7.465701,0.774682 -11.177378,1.310186 -2.43187,0.348393 -4.865925,0.730322 -7.298099,1.153002 6.283761,0.281922 12.578477,0.46402 18.87344,0.524125 -3.22704,-0.446424 -6.449834,-1.023087 -9.650198,-1.686744 -2.08181,-0.431879 -4.164348,-0.910186 -6.240565,-1.445402 5.163743,0.03075 10.3281,0.07887 15.4928,0.144833 z m 0.02946,3.000948 c -6.130463,0.921927 -12.249651,2.097163 -18.291839,3.64228 6.299374,-0.12465 12.586222,-0.398921 18.849834,-0.844984 -5.333242,-0.247279 -10.707618,-0.988037 -16.041378,-2.027873 5.160749,-0.272914 10.321961,-0.529222 15.483383,-0.769423 z m 0.192177,2.839029 c -6.050603,1.330068 -12.024959,3.022895 -17.857344,5.195053 6.240848,-0.700555 12.445685,-1.600529 18.603804,-2.722093 -5.299851,0.395643 -10.693531,0.15907 -16.099293,-0.515316 5.113789,-0.675694 10.231485,-1.328075 15.352833,-1.957644 z m 0.388214,2.552451 c -5.867316,1.888671 -11.593415,4.249552 -17.112569,7.199216 3.194351,-0.756096 6.37243,-1.580351 9.532708,-2.475935 2.882603,-0.817431 5.747643,-1.70457 8.590121,-2.6621 -0.775867,0.19077 -1.557546,0.362335 -2.343727,0.514942 -4.479214,0.821014 -9.055524,1.105645 -13.67867,0.973414 4.99678,-1.213032 10.000912,-2.396044 15.012137,-3.549537 z m 0.664999,2.189281 c -5.596594,2.571266 -10.955961,5.827425 -15.826158,9.786768 5.815066,-2.444629 11.474198,-5.207324 16.931351,-8.29438 -4.777547,2.264041 -10.087714,3.609014 -15.539417,4.109236 4.796973,-1.909049 9.608733,-3.776217 14.434224,-5.601624 z m 0.789751,1.681798 c -5.077085,3.515382 -9.676987,7.727698 -13.54776,12.655239 5.175562,-3.554482 10.092359,-7.442068 14.704343,-11.669053 -4.088005,3.349644 -8.981836,5.718309 -14.29041,7.18031 4.349366,-2.765591 8.72766,-5.487716 13.133827,-8.166496 z m 0.891254,1.239296 c -2.255909,2.384893 -4.306197,4.973067 -6.112181,7.767329 -1.565604,2.421645 -2.938547,4.971552 -4.131246,7.626225 4.176511,-4.692708 8.003206,-9.65444 11.50009,-14.840717 -2.125175,2.746902 -4.600652,5.227068 -7.469334,7.330151 -1.497299,1.095775 -3.091408,2.074494 -4.766524,2.939162 3.617013,-3.652393 7.277096,-7.259736 10.979195,-10.82215 z m 1.058883,0.861586 c -2.996368,5.353751 -5.156355,11.207146 -6.603817,17.325799 3.084212,-5.483051 5.862419,-11.135249 8.3546289,-16.912114 -2.5208819,4.702515 -5.7568169,9.064369 -9.8591919,12.696193 2.656342,-4.399685 5.358976,-8.769979 8.10838,-13.109878 z m 1.6152323,0.756483 c -1.8274943,5.894648 -2.9413573,12.068698 -3.4654443,18.287766 0.775416,-2.160693 1.51607,-4.330569 2.222929,-6.507482 1.2317862,-3.8014 2.3729303,-7.624726 3.4293695,-11.467712 -0.388572,0.987571 -0.7979889,1.968578 -1.2297888,2.942342 -1.7062137,3.903404 -3.8278897,7.716599 -6.4426727,11.23988 1.78854,-4.847857 3.616916,-9.67979 5.4856073,-14.494794 z m 2.1031489,0.670448 c -0.837927,6.12039 -1.1532315,12.316493 -1.0742056,18.548514 1.4005325,-6.12009 2.6199402,-12.277444 3.681315,-18.463257 -1.5187767,5.130264 -3.4270685,10.160613 -5.9184906,15.00549 1.074616,-5.036022 2.1782325,-10.066335 3.3113812,-15.090747 z m 2.5605025,0.44995 c -0.1437177,6.172166 0.1123519,12.384929 0.6399167,18.598494 0.868422,-6.230197 1.6071708,-12.477493 2.2393381,-18.733085 -1.225604,5.227198 -2.7066688,10.419429 -4.6368095,15.491135 0.5638077,-5.122099 1.1494821,-10.24101 1.7575547,-15.356544 z m 2.8595227,0.233239 c 0.3713313,6.185388 1.0196147,12.37626 1.81655818,18.532825 0.0717748,-0.88715 0.14198245,-1.774229 0.21068857,-2.661224 0.43808766,-5.373782 0.77367784,-10.760484 0.9959962,-16.152584 -0.23302293,1.425893 -0.49739397,2.84917 -0.79016235,4.267993 -0.83828831,3.835923 -1.7692264,7.675548 -2.8683279,11.485504 0.1968393,-5.158233 0.4084112,-10.315801 0.6352473,-15.472514 z m 3.02423673,0.08723 C 1.5209236,89.254926 2.5282996,95.401015 3.9583942,101.476 3.9944925,95.179239 3.8555889,88.889496 3.5246529,82.618654 3.203766,87.946158 2.3423711,93.300086 1.0914309,98.586314 0.98940616,93.426451 0.90838342,88.266947 0.84798013,83.108082 Z M 3.5590522,82.985192 C 4.7441517,89.059866 6.3461394,95.065014 8.4533012,100.93028 7.8450484,94.675788 7.0234639,88.454534 5.9715171,82.27841 6.3171231,87.585549 6.013731,92.981582 5.2123035,98.372387 4.6352206,93.246634 4.0842644,88.117476 3.5590522,82.985192 Z m 2.4876589,-0.347284 c 1.8087191,5.896214 4.1167819,11.654129 7.0124749,17.203394 -0.441495,-1.95518 -0.90861,-3.904306 -1.401898,-5.846991 -1.050322,-4.146748 -2.2294372,-8.262026 -3.5385007,-12.335515 0.2492713,1.111691 0.4631763,2.23363 0.6421618,3.363106 0.6429163,4.161791 0.837408,8.404737 0.6568738,12.683077 C 8.2629952,92.689701 7.1394188,87.66725 6.0467111,82.637908 Z m 2.196115,-0.632461 C 10.781505,87.625817 13.942716,93.018971 17.735046,98.006404 15.418638,92.147215 12.816767,86.418462 9.9257755,80.852822 11.972161,85.742927 13.204813,91.051784 13.669544,96.501514 11.822713,91.682721 10.013829,86.850449 8.2428261,82.005447 Z m 1.8621769,-0.831351 c 3.39648,5.154942 7.419868,9.912749 12.078747,14.094916 -3.303807,-5.344459 -6.901939,-10.485492 -10.798052,-15.390425 2.989148,4.374893 5.125491,9.362834 6.454839,14.685943 -2.617313,-4.44022 -5.195802,-8.903947 -7.735534,-13.390434 z m 1.516451,-1.014007 c 2.249321,2.356131 4.67594,4.553002 7.281134,6.564046 2.309975,1.782679 4.750907,3.408353 7.304232,4.876848 -4.317424,-4.570896 -8.901569,-8.858592 -13.719635,-12.8607 2.522552,2.426401 4.762308,5.167156 6.638572,8.212153 0.961638,1.56081 1.824213,3.19333 2.58951,4.886725 -3.404282,-3.859736 -6.768864,-7.75301 -10.093813,-11.679072 z m 1.154268,-1.192661 c 5.07186,3.478645 10.661168,6.249758 16.589173,8.311672 -5.134799,-3.632374 -10.463023,-6.97552 -15.951871,-10.027046 4.424414,2.9524 8.397137,6.655982 11.638652,11.075719 -4.123077,-3.079952 -8.215312,-6.200079 -12.275954,-9.360345 z m 0.964101,-1.54601 c 5.664652,2.431336 11.676745,4.15735 17.857529,5.176373 -4.449216,-2.079102 -8.971452,-3.978734 -13.551162,-5.697762 -1.293671,-0.487223 -2.591408,-0.961161 -3.893057,-1.42201 0.332574,0.15365 0.663922,0.310572 0.994001,0.470814 4.459349,2.128383 8.68015,4.932878 12.436951,8.385234 -4.635788,-2.263566 -9.250792,-4.567795 -13.844262,-6.912649 z m 0.763795,-1.832295 c 6.023128,1.380538 12.189431,2.099073 18.42843,2.259131 -6.028393,-1.74755 -12.11951,-3.247719 -18.259202,-4.518695 5.081298,1.606516 10.000679,3.795368 14.62904,6.715838 C 24.35919,78.597466 19.42633,77.112182 14.503618,75.589123 Z m 0.53147,-2.198446 c 6.142261,0.471936 12.362878,0.381807 18.591373,-0.166859 -6.213912,-0.978912 -12.458532,-1.750816 -18.719713,-2.333899 5.241075,1.088792 10.41471,2.658115 15.391801,4.857255 -5.093565,-0.753678 -10.18149,-1.539036 -15.263461,-2.356497 z m 0.239589,-2.481516 c 6.178144,-0.287446 12.369827,-1.037018 18.504567,-2.145189 -6.288195,-0.342768 -12.575083,-0.518901 -18.846517,-0.546584 5.289097,0.668962 10.605231,1.716653 15.819299,3.292357 -5.160666,-0.174046 -10.319887,-0.3741 -15.477349,-0.600584 z"
     style="display:none;opacity:1;fill:none;fill-opacity:0.98823529;fill-rule:evenodd;stroke:url(#radialGradient5188);stroke-width:0.72173148;stroke-linecap:round;stroke-miterlimit:4;stroke-dasharray:none" />
  <path
     sodipodi:insensitive="true"
     inkscape:label="ability_green"
     style="display:inline;opacity:1;fill:none;fill-opacity:0.98823529;fill-rule:evenodd;stroke:url(#radialGradient5194);stroke-width:0.72164887;stroke-linecap:round;stroke-miterlimit:4;stroke-dasharray:none"
     d="m 15.125996,68.119969 c 6.104813,-0.945086 12.214468,-2.123 18.266866,-3.629042 -6.293837,0.113865 -12.581806,0.360801 -18.853616,0.759033 5.344046,0.311404 10.713744,1.05484 16.029165,2.069861 -5.14799,0.281636 -10.295543,0.548215 -15.442415,0.800148 z m -0.220549,-2.909535 c 6.053439,-1.316211 12.050647,-2.95455 17.929527,-5.010314 -6.256785,0.620925 -12.485071,1.415883 -18.674566,2.403096 5.320863,-0.244825 10.719633,0.05719 16.11638,0.745595 -5.121012,0.640962 -10.244874,1.261366 -15.371341,1.861623 z m -0.384819,-2.679773 c 5.906141,-1.809329 11.694979,-4.030084 17.304417,-6.757564 -6.147621,1.267579 -12.244112,2.750151 -18.279182,4.465939 5.254747,-0.928975 10.639656,-1.196304 16.074797,-0.962431 -5.02729,1.110607 -10.060716,2.195156 -15.100032,3.254056 z m -0.625199,-2.405137 c 1.143356,-0.489499 2.27944,-0.99941 3.407741,-1.530517 4.462663,-2.086577 8.802397,-4.54282 12.920108,-7.385823 -5.947746,2.08369 -11.790091,4.437417 -17.491635,7.069626 4.515298,-1.62381 9.328088,-2.606211 14.218031,-3.012028 0.523739,-0.04544 1.04851,-0.08496 1.574242,-0.118703 -4.866823,1.690572 -9.743066,3.349583 -14.628487,4.977445 z m -0.834411,-2.011532 c 5.296624,-3.186015 10.253541,-6.973434 14.67582,-11.395885 -5.507687,3.032711 -10.830992,6.355085 -15.934516,9.975569 4.527018,-2.730086 9.626867,-4.604637 15.000492,-5.71164 -4.56048,2.414712 -9.141349,4.791972 -13.741796,7.131956 z m -0.965172,-1.640584 c 4.502796,-3.875096 8.515251,-8.337022 11.861803,-13.416063 0.117727,-0.179612 0.234577,-0.359901 0.350552,-0.540858 -4.815519,4.064182 -9.333908,8.424327 -13.55638,13.04459 1.294384,-1.237765 2.673549,-2.39315 4.13728,-3.454177 2.865773,-2.076439 6.028366,-3.761983 9.401453,-5.082028 -4.033885,3.189228 -8.099059,6.338681 -12.194708,9.448536 z M 10.992884,55.284136 C 14.743409,50.404665 17.752128,44.946073 20.037965,39.102388 16.193979,44.073072 12.645159,49.25954 9.3902924,54.625946 12.493876,50.309255 16.346221,46.493069 20.941767,43.484552 17.667216,47.45241 14.350937,51.385877 10.992884,55.284136 Z M 9.5720813,54.306211 C 12.230926,48.754022 14.17008,42.806807 15.408468,36.658591 12.536945,42.266497 9.9586251,48.010007 7.6722956,53.853276 10.026401,49.098389 13.140752,44.628124 17.009792,40.749643 14.57166,45.292199 12.092438,49.811327 9.5720813,54.306211 Z M 7.7956379,53.506495 C 8.1558194,52.177617 8.4813626,50.838266 8.7724771,49.490588 9.7744483,44.784908 10.391891,39.99797 10.67985,35.159855 8.734797,41.128162 7.0325432,47.163341 5.552305,53.252259 c 1.5844835,-4.454011 3.6093356,-8.769555 6.194851,-12.861574 0.329438,-0.516493 0.66854,-1.028683 1.0173,-1.536134 -1.615806,4.896717 -3.2720632,9.780971 -4.9688181,14.651944 z M 5.6256398,52.892462 C 6.2998241,46.769487 6.4240935,40.556142 6.1157143,34.316512 4.9150732,40.486639 3.9110307,46.693837 3.0828027,52.924971 4.3896941,47.731854 6.137451,42.624693 8.4980237,37.72507 7.5714551,42.787337 6.6141541,47.843231 5.6256398,52.892462 Z M 3.1161274,52.558237 C 3.0527909,46.376968 2.552406,40.163775 1.7322392,33.982743 1.1237475,40.250337 0.66565347,46.525199 0.33717321,52.794196 1.2816641,47.533754 2.5490914,42.269521 4.3114054,37.123077 3.9374122,42.270735 3.5391465,47.415885 3.1161274,52.558237 Z M 0.3397324,52.426129 C 0.20604447,51.125268 0.05793044,49.825588 -0.10350886,48.52769 -0.71907912,43.683449 -1.4767257,38.833087 -2.4313726,34.006106 c -0.1798892,6.290419 -0.23424,12.58257 -0.1418244,18.86673 0.5178764,-4.773388 1.3748666,-9.550085 2.43701562,-14.276958 0.12454643,-0.547393 0.25293966,-1.09462 0.38537026,-1.641547 0.048154,5.156004 0.0784955,10.313367 0.0905435,15.471798 z m -2.9347407,0.07903 c -1.0288504,-6.108596 -2.3673495,-12.180215 -4.1272989,-18.154801 0.3106787,6.28048 0.7945665,12.541394 1.4728917,18.773018 0.019977,-5.327004 0.5944435,-10.705397 1.5374917,-16.061439 0.3921074,5.146107 0.7642528,10.293926 1.1169155,15.443222 z m -2.7089672,0.254793 c -1.513528,-5.989536 -3.4417392,-11.882614 -5.8964355,-17.619181 0.963236,6.20353 2.1473518,12.366196 3.5735757,18.478273 -0.6839656,-5.293917 -0.6808795,-10.686494 -0.1766486,-16.103992 0.8593974,5.076866 1.692407,10.158576 2.4995084,15.2449 z m -2.419421,0.504367 c -0.2558302,-0.689497 -0.5190681,-1.376772 -0.7899038,-2.061722 -1.9774267,-5.053587 -4.4208277,-9.989541 -7.3691047,-14.660191 1.816185,6.037687 3.918363,11.976483 6.3195171,17.777349 -1.5542951,-4.874121 -2.3220321,-10.080533 -2.4182691,-15.325121 -0.0045,-0.195064 -0.0083,-0.390225 -0.01116,-0.585478 1.455625,4.943819 2.8784373,9.895618 4.2689155,14.855163 z m -1.9905402,0.719551 c -2.9480493,-5.433062 -6.5397573,-10.53342 -10.8320883,-15.084834 2.833235,5.610103 5.982304,11.034289 9.460189,16.233519 -2.631024,-4.581333 -4.317487,-9.747775 -5.187774,-15.171149 2.226718,4.654383 4.413183,9.328836 6.5596733,14.022464 z m -1.5832803,0.848891 c -3.066275,-3.823192 -6.573535,-7.303172 -10.55068,-10.33023 -1.006341,-0.76293 -2.03951,-1.494271 -3.097712,-2.194235 3.964255,4.889826 8.245695,9.47488 12.804263,13.757305 -1.672361,-1.78366 -3.181964,-3.728365 -4.494644,-5.834169 -1.524783,-2.446628 -2.766259,-5.083584 -3.744277,-7.860128 3.071526,4.122 6.099117,8.276118 9.08305,12.461457 z m -1.117159,0.987826 c -4.803185,-3.833697 -10.228456,-6.904972 -16.059268,-9.239257 4.929098,3.896911 10.085766,7.493009 15.429949,10.790439 -4.301431,-3.130295 -8.086192,-7.019032 -11.010688,-11.666754 3.917013,3.329102 7.797319,6.700936 11.640007,10.115572 z m -0.947665,1.366669 c -5.525886,-2.713282 -11.468491,-4.692923 -17.611271,-5.964354 5.59281,2.90888 11.323575,5.520907 17.152242,7.838225 -4.736802,-2.375243 -9.19859,-5.517021 -13.041767,-9.42588 4.52503,2.475536 9.0256,4.992849 13.500796,7.552009 z m -0.805099,1.748587 c -0.891426,-0.247439 -1.787584,-0.479097 -2.687749,-0.695057 -5.124146,-1.20381 -10.347782,-1.952855 -15.634655,-2.317994 5.949824,1.991108 11.966536,3.745972 18.03797,5.285063 -4.705497,-1.732703 -9.252917,-3.946375 -13.547711,-6.78277 -0.264752,-0.177214 -0.528295,-0.357055 -0.79056,-0.539522 4.886754,1.642581 9.761294,3.325985 14.622705,5.05028 z m -0.643361,2.195361 c -6.11477,-0.724489 -12.322333,-0.913671 -18.563734,-0.682778 6.15422,1.26786 12.347692,2.344996 18.568248,3.25188 -5.177878,-1.378525 -10.261323,-3.182756 -15.137149,-5.582392 5.050833,0.974392 10.095134,1.978664 15.132635,3.01329 z m -0.361758,2.5313 c -6.180052,-0.0063 -12.399284,0.411905 -18.59874,1.139349 6.261592,0.694792 12.534799,1.244382 18.807454,1.669239 -5.257424,-1.032022 -10.504202,-2.373198 -15.62715,-4.193227 5.142528,0.437865 10.282096,0.899253 15.418436,1.384639 z m -0.15972,2.800537 c -3.736493,0.331479 -7.467708,0.777649 -11.18061,1.313029 -2.429996,0.347951 -4.862142,0.728989 -7.292453,1.150246 6.282899,0.282622 12.576638,0.466618 18.870711,0.530042 -3.225416,-0.448894 -6.446517,-1.026439 -9.645494,-1.689875 -2.082574,-0.432076 -4.16586,-0.910072 -6.242921,-1.444388 5.163065,0.02966 10.326743,0.07648 15.490767,0.140946 z m 0.02919,3.006795 c -6.129941,0.920768 -12.248849,2.091865 -18.292168,3.628722 6.298621,-0.119194 12.585045,-0.386309 18.848765,-0.823293 -5.332913,-0.257152 -10.70567,-1.002239 -16.038143,-2.042852 5.160152,-0.270441 10.320751,-0.524468 15.481546,-0.762577 z m 0.190762,2.846686 c -6.051334,1.324255 -12.027799,3.007229 -17.864836,5.164356 6.241648,-0.688615 12.448062,-1.574446 18.608733,-2.679441 -5.301184,0.37855 -10.693818,0.131874 -16.097774,-0.547622 5.114216,-0.668652 10.232259,-1.314251 15.353877,-1.937293 z m 0.385482,2.563513 c -5.871026,1.876797 -11.603346,4.220705 -17.1324,7.147159 3.430297,-0.800129 6.842239,-1.677907 10.233968,-2.637215 2.651204,-0.751157 5.287807,-1.56078 7.905917,-2.429458 -0.714639,0.171722 -1.43405,0.327322 -2.157212,0.467011 -4.542346,0.827581 -9.182864,1.107848 -13.870176,0.96418 4.999511,-1.200087 10.006229,-2.370481 15.019903,-3.511677 z m 0.661735,2.207082 c -5.604559,2.550153 -10.979626,5.779115 -15.872897,9.708971 5.827524,-2.41408 11.502189,-5.144539 16.977928,-8.198376 -4.792654,2.232428 -10.109993,3.548203 -15.561064,4.027644 4.804678,-1.887578 9.623708,-3.733612 14.456033,-5.538239 z m 0.788486,1.698148 c -5.096211,3.48797 -9.722552,7.670391 -13.626721,12.569345 5.198231,-3.520229 10.140738,-7.373443 14.781455,-11.566641 -4.111456,3.318048 -9.020565,5.653309 -14.336372,7.086105 4.365726,-2.739566 8.759957,-5.43579 13.181638,-8.088809 z m 0.887702,1.253912 c -2.361361,2.46319 -4.502669,5.146385 -6.380414,8.053392 -1.494035,2.312212 -2.812638,4.741926 -3.966396,7.268578 4.208809,-4.664074 8.06697,-9.600712 11.594039,-14.765186 -2.088117,2.66959 -4.511433,5.081374 -7.308808,7.132178 -1.564029,1.145193 -3.233597,2.162002 -4.990649,3.054136 3.641769,-3.626128 7.326197,-7.207115 11.052228,-10.743098 z m 1.047569,0.864263 c -3.032112,5.333012 -5.224727,11.173304 -6.699325,17.284969 3.112564,-5.465652 5.917274,-11.103439 8.4336812,-16.868628 -2.5370202,4.692463 -5.7952662,9.03677 -9.9221252,12.641597 2.682619,-4.382819 5.411719,-8.735802 8.187769,-13.057938 z m 1.5972517,0.758461 c -1.8571157,5.883652 -2.9952567,12.052845 -3.5359037,18.271671 0.854742,-2.3554 1.66761,-4.722128 2.439833,-7.097374 1.1687425,-3.600644 2.2554479,-7.221243 3.265226,-10.859836 -0.3698472,0.934827 -0.7586223,1.863661 -1.1676489,2.785911 -1.7267201,3.952818 -3.8842331,7.8114 -6.5511371,11.367065 1.809559,-4.839105 3.659279,-9.661921 5.5496307,-14.467437 z m 2.084513,0.672082 c -0.856956,6.117227 -1.1852056,12.311992 -1.1145361,18.543676 1.4120646,-6.116634 2.6409248,-12.271257 3.7099373,-18.454896 -1.5227504,5.127918 -3.4394374,10.154242 -5.9458679,14.991861 1.0873074,-5.032772 2.2039506,-10.059717 3.3504667,-15.080641 z m 2.5482849,0.453359 c -0.1546069,6.170795 0.095218,12.383265 0.6196883,18.596797 0.8738605,-6.228789 1.616557,-12.475017 2.2514463,-18.729716 -1.2262973,5.226197 -2.7109737,10.416894 -4.6498365,15.48498 0.5706025,-5.120674 1.163324,-10.238092 1.7787019,-15.352061 z m 2.8512029,0.234866 c 0.3664508,6.184878 1.0130594,12.375569 1.81003865,18.531461 0.0722061,-0.89012 0.14281604,-1.780172 0.21189679,-2.670138 C 0.20101124,93.513513 0.53633909,88.130416 0.75727461,82.74189 0.52526726,84.166872 0.26160541,85.589227 -0.03073894,87.007083 -0.86902361,90.84321 -1.801052,94.683151 -2.903241,98.49291 -2.7038411,93.335261 -2.4895388,88.178296 -2.2597965,83.022209 Z m 3.01809957,0.08785 C 1.4298501,89.256169 2.4395765,95.401552 3.8764804,101.47458 3.9086784,95.178356 3.7639919,88.889375 3.4252445,82.619751 3.1134431,87.946563 2.2554191,93.300889 1.0034819,98.586735 0.90065011,93.42739 0.8190524,88.268405 0.75830307,83.110064 Z M 3.4600391,82.986209 C 4.6493173,89.059199 6.2598804,95.061465 8.3807266,100.92137 7.7617304,94.668703 6.9271894,88.450007 5.8599273,82.2774 6.2216253,87.582258 5.9276171,92.978385 5.1302122,98.369785 4.5472148,93.245308 3.990619,88.117354 3.4600391,82.986209 Z m 2.4759004,-0.349534 c 1.8192859,5.89176 4.1429625,11.642791 7.0600265,17.181462 -0.401024,-1.750855 -0.822834,-3.496746 -1.26583,-5.237391 C 10.626934,90.233015 9.3808784,85.920501 7.9908306,81.655117 8.257627,82.819279 8.4852518,83.995001 8.67417,85.179148 9.313132,89.285262 9.5119343,93.471763 9.3417325,97.693804 8.1750276,92.681979 7.0398919,87.662841 5.9359395,82.636675 Z M 8.1161988,82.00125 c 2.5572842,5.611401 5.7422092,10.989824 9.5604902,15.956711 -2.343343,-5.847445 -4.973648,-11.562078 -7.894046,-17.111182 2.074508,4.877005 3.332823,10.179077 3.81627,15.627735 C 11.733127,91.663647 9.9055736,86.838976 8.1161988,82.00125 Z M 9.9635107,81.167062 C 13.384066,86.304524 17.433905,91.0391 22.118741,95.19223 18.784421,89.867568 15.155456,84.748812 11.228713,79.86868 c 3.018008,4.354929 5.183891,9.329754 6.538975,14.645995 C 15.127366,90.089064 12.525992,85.63961 9.9635107,81.167062 Z m 1.5026783,-1.018358 c 2.177338,2.253926 4.518726,4.358915 7.024923,6.291295 2.408334,1.856706 4.958469,3.542336 7.629374,5.057071 -4.345581,-4.542409 -8.955386,-8.800997 -13.796597,-12.773963 2.5929,2.466131 4.893275,5.260798 6.814756,8.374748 0.920944,1.492804 1.751437,3.051496 2.49289,4.666578 -3.428093,-3.838278 -6.816524,-7.710436 -10.165346,-11.615729 z m 1.147568,-1.200234 c 5.092961,3.445932 10.697562,6.184059 16.635155,8.215923 -5.154478,-3.603445 -10.499831,-6.91836 -16.003238,-9.942943 4.437421,2.933079 8.430315,6.61368 11.698739,11.011822 -4.140967,-3.054771 -8.251435,-6.149713 -12.330656,-9.284802 z m 0.959552,-1.55932 c 5.677737,2.400218 11.697274,4.097889 17.87996,5.094557 -4.263574,-1.969954 -8.592497,-3.776851 -12.97316,-5.419946 -1.493286,-0.561736 -2.991914,-1.105918 -4.495657,-1.632843 0.384305,0.176344 0.767004,0.357002 1.148034,0.542048 4.408279,2.106036 8.587313,4.866727 12.318972,8.258711 C 22.80472,81.991304 18.17842,79.710454 13.573309,77.38915 Z m 0.761955,-1.848367 c 6.02748,1.355924 12.194916,2.056699 18.433196,2.204915 -6.03231,-1.731612 -12.126151,-3.218397 -18.267636,-4.478386 5.083362,1.60035 10.007493,3.776997 14.645599,6.678007 -4.946794,-1.431069 -9.88395,-2.899108 -14.811159,-4.404536 z m 0.527893,-2.213075 c 6.143192,0.456902 12.3628,0.357673 18.589713,-0.195094 -6.214448,-0.970977 -12.459,-1.737157 -18.719771,-2.31657 5.240965,1.088089 10.415521,2.651471 15.396875,4.838212 C 25.03541,74.910227 19.946368,74.13485 14.863157,73.327708 Z m 0.237841,-2.492697 c 6.177398,-0.294339 12.367673,-1.045788 18.501715,-2.151756 -6.287359,-0.34174 -12.573397,-0.518711 -18.844227,-0.548945 5.288661,0.673055 10.603736,1.720399 15.818433,3.290099 C 25.41677,71.253807 20.258027,71.05748 15.100998,70.835011 Z"
     id="path5190"
     inkscape:path-effect="#path-effect5192"
     inkscape:original-d="M 24.156934,67.765581 C 23.497794,50.968576 15.816663,43.328075 -0.12044147,43.380505 -15.420362,43.430835 -24.489004,49.382527 -24.397816,67.765581 c 0.0967,19.493779 8.977455,24.118247 24.27737453,24.385074 C 15.814349,92.428553 24.796954,84.075594 24.156934,67.765581 Z"
     inkscape:connector-curvature="0"
     sodipodi:nodetypes="sssss"
     inkscape:export-filename="C:\dev\quadrat\src\battle\ability_green.png"
     inkscape:export-xdpi="24.081503"
     inkscape:export-ydpi="24.081503" />
  <g
     sodipodi:insensitive="true"
     inkscape:groupmode="layer"
     style="display:inline"
     inkscape:label="piece_green"
     id="g4837"
     transform="matrix(-0.89423991,0,0,0.89423991,61.634555,86.89801)"
     inkscape:export-xdpi="24"
     inkscape:export-ydpi="24">
    <circle
       inkscape:label="piece"
       r="33.729763"
       cy="-21.43125"
       cx="68.923958"
       id="path4553"
       style="display:inline;opacity:1;fill:url(#radialGradient4581);fill-opacity:1;stroke:none;stroke-width:0.99208218;stroke-miterlimit:4;stroke-dasharray:none" />
    <path
       inkscape:label="piece shade"
       inkscape:connector-curvature="0"
       id="circle4660"
       d="M 68.923954,-55.161011 A 33.729762,33.729762 0 0 0 35.194192,-21.431249 33.729762,33.729762 0 0 0 68.923954,12.298513 33.729762,33.729762 0 0 0 102.65372,-21.431249 33.729762,33.729762 0 0 0 68.923954,-55.161011 Z"
       style="display:inline;opacity:1;fill:url(#radialGradient4662);fill-opacity:1;stroke:none;stroke-width:1.18382657;stroke-miterlimit:4;stroke-dasharray:none" />
    <path
       inkscape:label="piece white"
       transform="matrix(1.1242021,0,0,1.1242021,-8.5605002,2.6618061)"
       style="display:inline;opacity:1;fill:url(#radialGradient4702);fill-opacity:1;stroke:none;stroke-width:0.98595518;stroke-miterlimit:4;stroke-dasharray:none;filter:url(#filter4816)"
       d="M 68.923957,-49.523231 A 28.091981,28.091981 0 0 0 40.831976,-21.43125 28.091981,28.091981 0 0 0 68.923957,6.6607316 28.091981,28.091981 0 0 0 97.015939,-21.43125 28.091981,28.091981 0 0 0 68.923957,-49.523231 Z"
       id="path4694"
       inkscape:connector-curvature="0"
       inkscape:export-xdpi="24"
       inkscape:export-ydpi="24" />
    <circle
       transform="matrix(1.027909,0,0,1.027909,-1.9236018,0.59812569)"
       r="15.478125"
       style="display:inline;opacity:1;fill:url(#radialGradient4601);fill-opacity:1;stroke:none;stroke-width:1.08333337;stroke-miterlimit:4;stroke-dasharray:none;filter:url(#filter4634)"
       id="circle4593"
       cx="68.923958"
       cy="-21.43125"
       inkscape:label="kant" />
    <circle
       inkscape:label="pimp"
       r="14.419791"
       cy="-21.43125"
       cx="68.923958"
       id="path4589"
       style="display:inline;opacity:1;fill:url(#radialGradient4615);fill-opacity:1;stroke:none;stroke-width:1.00925922;stroke-miterlimit:4;stroke-dasharray:none" />
    <circle
       style="display:inline;opacity:1;fill:url(#radialGradient4622);fill-opacity:1;stroke:none;stroke-width:1.00925922;stroke-miterlimit:4;stroke-dasharray:none"
       id="circle4617"
       cx="68.923958"
       cy="-21.43125"
       r="14.419791"
       inkscape:label="pimp shade" />
    <path
       inkscape:label="pimp blick"
       sodipodi:nodetypes="cccccccccc"
       inkscape:connector-curvature="0"
       d="m 57.399656,-22.790416 c 0.183562,-1.347679 0.463993,-2.385103 1.032212,-3.820193 l 3.352665,1.961731 c -0.454134,1.199247 -0.532092,1.716232 -0.579228,2.463469 z m 1.352303,-4.441538 c 1.174741,-2.203537 2.881683,-4.174356 5.564228,-4.932225 l 1.690663,3.155104 c -1.839153,0.772401 -3.17533,2.196947 -3.934997,3.751528 z"
       style="display:inline;opacity:1;fill:#ffffff;fill-opacity:0.7782427;stroke:none;stroke-width:0.8523553;stroke-miterlimit:4;stroke-dasharray:none"
       id="path4656" />
    <path
       inkscape:label="halo"
       sodipodi:nodetypes="sssss"
       inkscape:connector-curvature="0"
       id="path4638"
       d="m 45.912051,-42.082217 c 0,6.775272 10.219019,12.267715 22.824818,12.267715 12.605799,0 22.824817,-5.492443 22.824817,-12.267715 -10e-7,-6.775272 -10.77697,-13.06374 -22.58868,-13.059968 -12.434101,0.004 -23.060954,6.284696 -23.060955,13.059968 z"
       style="display:inline;opacity:1;fill:url(#linearGradient4646);fill-opacity:1;stroke:none;stroke-width:0.87446219;stroke-miterlimit:4;stroke-dasharray:none" />
  </g>
  <g
     sodipodi:insensitive="true"
     inkscape:groupmode="layer"
     style="display:none"
     transform="translate(8.0393096,78.021316)"
     id="g890"
     inkscape:label="impeccable">
    <rect
       sodipodi:insensitive="true"
       y="-44.154648"
       x="-41.905975"
       height="67.73333"
       width="67.73333"
       id="rect886"
       style="display:inline;opacity:1;fill:#000000;fill-opacity:0;stroke-width:0.2;stroke-miterlimit:4;stroke-dasharray:none"
       inkscape:label="back" />
    <path
       sodipodi:nodetypes="ssssssssss"
       inkscape:label="metal"
       inkscape:connector-curvature="0"
       id="circle1446"
       transform="matrix(0.26458333,0,0,0.26458333,-8.0393096,-78.021316)"
       d="m 0,142 c -62.960461,0 -114,51.03954 -114,114 0,62.96046 51.039539,114 114,114 62.960461,0 114,-51.03954 114,-114 C 114,193.03954 62.960461,142 0,142 Z m 0,61.5 c 30.099519,0 52.5,22.40048 52.5,52.5 0,30.09952 -22.400481,52.5 -52.5,52.5 -30.099519,0 -52.5,-22.40048 -52.5,-52.5 0,-30.09952 22.400481,-52.5 52.5,-52.5 z"
       style="display:inline;opacity:1;fill:url(#radialGradient1449);fill-opacity:1;stroke:none;stroke-width:3.35304379;stroke-miterlimit:4;stroke-dasharray:none" />
    <circle
       r="23.282804"
       cy="-10.287984"
       cx="-8.0393095"
       id="path1645"
       style="opacity:0.36263739;fill:none;fill-opacity:1;stroke:#000000;stroke-width:0.5;stroke-miterlimit:4;stroke-dasharray:none" />
    <circle
       r="0.33072916"
       cy="-22.194233"
       cx="-29.735142"
       id="path1647"
       style="opacity:0.4;fill:none;fill-opacity:1;stroke:#000000;stroke-width:0.5;stroke-miterlimit:4;stroke-dasharray:none" />
    <circle
       style="opacity:0.4;fill:none;fill-opacity:1;stroke:#000000;stroke-width:0.5;stroke-miterlimit:4;stroke-dasharray:none"
       id="circle1658"
       cx="-31.058058"
       cy="-19.614546"
       r="0.33072916" />
    <circle
       r="0.33072916"
       cy="-16.902567"
       cx="-32.050243"
       id="circle1660"
       style="opacity:0.4;fill:none;fill-opacity:1;stroke:#000000;stroke-width:0.5;stroke-miterlimit:4;stroke-dasharray:none" />
    <circle
       style="opacity:0.4;fill:none;fill-opacity:1;stroke:#000000;stroke-width:0.5;stroke-miterlimit:4;stroke-dasharray:none"
       id="circle1662"
       cx="-32.579411"
       cy="-14.190588"
       r="0.33072916" />
    <circle
       r="0.33072916"
       cy="-11.544755"
       cx="-32.910141"
       id="circle1664"
       style="opacity:0.4;fill:none;fill-opacity:1;stroke:#000000;stroke-width:0.5;stroke-miterlimit:4;stroke-dasharray:none" />
  </g>
  <g
     inkscape:groupmode="layer"
     inkscape:label="parasite_host"
     id="g6430"
     transform="translate(8.0393096,78.021316)"
     style="display:none"
     sodipodi:insensitive="true">
    <path
       sodipodi:nodetypes="cccccccccccccccccccccccccccccccccsssss"
       inkscape:connector-curvature="0"
       id="path7686"
       d="m -4.1782131,-34.304088 -7.9067869,0.02505 0.08419,3.504302 c -2.793245,0.536436 -5.448018,1.634092 -7.802968,3.226257 l -2.560873,-2.436059 -5.457997,5.712829 2.411084,2.293794 c -1.596632,2.352568 -2.696752,5.004829 -3.233374,7.795283 l -3.532435,0.08917 0.0017,7.8678313 3.534845,-0.060692 c 0.537377,2.7875038 1.637102,5.43685338 3.232341,7.7870369 l -2.441559,2.555644 5.725035,5.4473703 2.298484,-2.4061625 c 2.357229,1.5933072 5.014733,2.6911801 7.810716,3.226771 l 0.08936,3.52574 7.8956167,-0.0013 -0.072504,-3.527626 C -1.309936,9.7849172 1.3450162,8.6874349 3.7001626,7.0953892 L 6.261036,9.5319626 11.718516,3.8196481 9.3079484,1.5258552 c 1.5970616,-2.35264053 2.6975376,-5.0050885 3.2344066,-7.7957988 1.143712,-0.021826 2.288051,-0.010266 3.431974,-0.010873 0.0034,-2.6303847 0.0025,-5.2607724 0.0018,-7.8911594 -1.147079,-0.01106 -2.294683,0.01581 -3.441529,-0.01288 -0.538165,-2.781225 -1.636214,-5.424559 -3.2276923,-7.770022 l 2.4415583,-2.560798 -5.7296826,-5.441184 -2.293836,2.405646 c -2.3579054,-1.593841 -5.0163249,-2.692078 -7.8132851,-3.227651 z m -3.8728173,9.957634 c 7.81390975,0 14.148335,6.321494 14.1483348,14.119449 2e-7,7.7979552 -6.33442505,14.1194487 -14.1483348,14.1194487 -7.8139096,0 -14.1483346,-6.3214935 -14.1483346,-14.1194487 0,-7.797955 6.334425,-14.119449 14.1483346,-14.119449 z"
       style="display:none;opacity:1;fill:#000000;fill-opacity:0.39215686;stroke:none;stroke-width:0.24804431;stroke-linecap:butt;stroke-miterlimit:4;stroke-dasharray:none;stroke-dashoffset:0;stroke-opacity:1" />
  </g>
  <g
     inkscape:label="parasite"
     id="layer2"
     inkscape:groupmode="layer"
     style="display:none">
    <path
       style="opacity:0.6;fill:#ffffff;fill-opacity:1;stroke:#000000;stroke-width:0.52911317;stroke-linecap:butt;stroke-miterlimit:4;stroke-dasharray:none;stroke-dashoffset:0;stroke-opacity:1"
       d="M 0.11359285,43.662404 -3.59641,49.829348 c -2.3946913,0.481615 -4.6685701,1.438284 -6.687307,2.813488 l -6.65682,-2.010519 1.734607,6.973011 c -1.340537,2.011244 -2.268894,4.268369 -2.731347,6.640766 l -2.660558,1.511895 -3.473348,1.975385 3.470248,1.974353 2.673992,1.518611 c 0.475293,2.432404 1.440257,4.742755 2.836241,6.790613 l -2.010533,6.656785 6.973049,-1.734598 c 2.0380973,1.35683 4.3280027,2.290392 6.733811,2.745286 l 3.2806139,6.119922 3.7100029,-6.166944 c 2.3946905,-0.481616 4.6685706,-1.438285 6.6873062,-2.813489 l 6.65682,2.01052 -1.734607,-6.973012 c 1.356835,-2.038083 2.290404,-4.327978 2.745298,-6.733773 l 6.119955,-3.280597 -6.166976,-3.709983 C 17.422419,61.74239 16.465746,59.468521 15.090533,57.449799 l 2.010533,-6.656785 -6.973049,1.734597 C 8.0899212,51.170783 5.8000145,50.237219 3.3942068,49.782326 Z M -8.4130644e-5,53.447356 A 14.286094,14.286018 0 0 1 14.28601,67.733374 14.286094,14.286018 0 0 1 -8.4130644e-5,82.019394 14.286094,14.286018 0 0 1 -14.286179,67.733374 14.286094,14.286018 0 0 1 -8.4130644e-5,53.447356 Z"
       id="path22708"
       inkscape:connector-curvature="0" />
  </g>
  <g
     sodipodi:insensitive="true"
     style="display:none"
     transform="translate(-0.95921437,38.507441)"
     inkscape:label="sphere"
     id="g933">
    <rect
       inkscape:label="back"
       style="opacity:1;fill:#000000;fill-opacity:0;stroke-width:0.2;stroke-miterlimit:4;stroke-dasharray:none"
       id="rect890"
       width="67.73333"
       height="67.73333"
       x="-32.907452"
       y="-4.6407723" />
    <path
       inkscape:label="grid"
       id="path894"
       style="fill:none;stroke:#c83737;stroke-width:1;stroke-linecap:butt;stroke-linejoin:miter;stroke-miterlimit:4;stroke-dasharray:none;stroke-opacity:1"
       d="m 18.490327,20.322418 c 2.491313,6.861324 2.107608,13.183581 -0.970096,19.000714 l 5.449492,2.670789 c 3.914586,-8.955446 3.148688,-16.903467 0.121781,-24.236722 l 4.65215,-2.555503 c 5.020597,10.365974 4.167754,19.882776 -0.430715,28.858041 L 22.987745,41.975898 17.527696,39.341154 C 20.636033,33.40808 20.951139,27.06766 18.490327,20.322418 Z m -4.65902,2.668153 13.926784,-7.830117 c 1.72252,3.203293 2.495654,6.464606 3.065994,9.783118 l -15.799108,2.186912 c 0.342342,3.221171 0.04822,3.662318 -0.236472,5.691308 l 15.358739,4.038276 c -0.683708,3.150064 -1.731119,5.330253 -2.904326,7.174986 L 12.926739,37.124278 c 2.367096,-3.626689 3.120867,-9.112453 0.904568,-14.133707 z"
       inkscape:connector-curvature="0"
       sodipodi:nodetypes="cccccccccccccccccc" />
  </g>
</svg>
