<?xml version="1.0" encoding="UTF-8" standalone="no"?>
<!-- Created with Inkscape (http://www.inkscape.org/) -->

<svg
   xmlns:dc="http://purl.org/dc/elements/1.1/"
   xmlns:cc="http://creativecommons.org/ns#"
   xmlns:rdf="http://www.w3.org/1999/02/22-rdf-syntax-ns#"
   xmlns:svg="http://www.w3.org/2000/svg"
   xmlns="http://www.w3.org/2000/svg"
   xmlns:xlink="http://www.w3.org/1999/xlink"
   xmlns:sodipodi="http://sodipodi.sourceforge.net/DTD/sodipodi-0.dtd"
   xmlns:inkscape="http://www.inkscape.org/namespaces/inkscape"
   width="256"
   height="256"
   viewBox="0 0 67.733332 67.733332"
   version="1.1"
   id="svg8"
   inkscape:version="0.92.2 (5c3e80d, 2017-08-06)"
   sodipodi:docname="piece_qr.svg"
   inkscape:export-filename="C:\dev\_GAME\redblackgame\bitmap.png"
   inkscape:export-xdpi="96"
   inkscape:export-ydpi="96">
  <sodipodi:namedview
     id="base"
     pagecolor="#ffffff"
     bordercolor="#666666"
     borderopacity="1.0"
     inkscape:pageopacity="0.0"
     inkscape:pageshadow="2"
     inkscape:zoom="1.075"
     inkscape:cx="-28.454278"
     inkscape:cy="238.73286"
     inkscape:document-units="px"
     inkscape:current-layer="svg8"
     showgrid="false"
     inkscape:window-width="1600"
     inkscape:window-height="1147"
     inkscape:window-x="-8"
     inkscape:window-y="-8"
     inkscape:window-maximized="1"
     units="px"
     showborder="false"
     inkscape:snap-nodes="false"
     inkscape:snap-others="false"
     inkscape:snap-global="false"
     showguides="true"
     inkscape:guide-bbox="true" />
  <defs
     id="defs2">
    <linearGradient
       id="linearGradient5200"
       inkscape:collect="always">
      <stop
         id="stop5196"
         offset="0"
         style="stop-color:#ad0000;stop-opacity:1" />
      <stop
         id="stop5198"
         offset="1"
         style="stop-color:#ff9100;stop-opacity:0.47843137" />
    </linearGradient>
    <inkscape:path-effect
       fuse_tolerance="0"
       vertical_pattern="false"
       prop_units="false"
       tang_offset="0"
       normal_offset="0"
       spacing="0"
       scale_y_rel="false"
       prop_scale="1.5819016"
       copytype="repeated_stretched"
       pattern="m 69.677813,-40.174374 2.457608,11.660409 1.044216,-11.892934 -3.327788,10.007069 z"
       is_visible="true"
       id="path-effect5192"
       effect="skeletal" />
    <linearGradient
       inkscape:collect="always"
       id="linearGradient5186">
      <stop
         style="stop-color:#00b915;stop-opacity:1"
         offset="0"
         id="stop5182" />
      <stop
         style="stop-color:#00a2ff;stop-opacity:0.47963801"
         offset="1"
         id="stop5184" />
    </linearGradient>
    <inkscape:path-effect
       effect="skeletal"
       id="path-effect5111"
       is_visible="true"
       pattern="m 70.547993,29.614049 2.457608,11.66041 1.044216,-11.892935 -3.327788,10.007069 z"
       copytype="repeated_stretched"
       prop_scale="1.5819016"
       scale_y_rel="false"
       spacing="0"
       normal_offset="0"
       tang_offset="0"
       prop_units="false"
       vertical_pattern="false"
       fuse_tolerance="0" />
    <inkscape:path-effect
       effect="skeletal"
       id="path-effect5078"
       is_visible="true"
       pattern="m -3.6918604,-9.721899 3.95348832,8.6143409"
       copytype="repeated_stretched"
       prop_scale="1.1503327"
       scale_y_rel="false"
       spacing="0"
       normal_offset="0"
       tang_offset="0"
       prop_units="false"
       vertical_pattern="false"
       fuse_tolerance="0"
       pattern-nodetypes="cc" />
    <inkscape:path-effect
       effect="skeletal"
       id="path-effect5065"
       is_visible="true"
       pattern="M 0,0 H 1"
       copytype="single_stretched"
       prop_scale="1"
       scale_y_rel="false"
       spacing="0"
       normal_offset="0"
       tang_offset="0"
       prop_units="false"
       vertical_pattern="false"
       fuse_tolerance="0" />
    <inkscape:path-effect
       effect="skeletal"
       id="path-effect5038"
       is_visible="true"
       pattern="M 0,0 H 1"
       copytype="repeated_stretched"
       prop_scale="1000000"
       scale_y_rel="false"
       spacing="0"
       normal_offset="0"
       tang_offset="0"
       prop_units="false"
       vertical_pattern="false"
       fuse_tolerance="0" />
    <linearGradient
       id="linearGradient4700"
       inkscape:collect="always">
      <stop
         id="stop4696"
         offset="0"
         style="stop-color:#ffffff;stop-opacity:1" />
      <stop
         id="stop4698"
         offset="1"
         style="stop-color:#fdfdfd;stop-opacity:0.33054394" />
    </linearGradient>
    <linearGradient
       id="linearGradient4668"
       inkscape:collect="always">
      <stop
         id="stop4664"
         offset="0"
         style="stop-color:#fdfdfd;stop-opacity:0" />
      <stop
         id="stop4666"
         offset="1"
         style="stop-color:#050505;stop-opacity:1" />
    </linearGradient>
    <linearGradient
       id="linearGradient4644"
       inkscape:collect="always">
      <stop
         id="stop4640"
         offset="0"
         style="stop-color:#f1f1f1;stop-opacity:0.51046026" />
      <stop
         id="stop4642"
         offset="1"
         style="stop-color:#ffffff;stop-opacity:0" />
    </linearGradient>
    <linearGradient
       inkscape:collect="always"
       id="linearGradient4628">
      <stop
         style="stop-color:#000000;stop-opacity:0"
         offset="0"
         id="stop4624" />
      <stop
         style="stop-color:#000000;stop-opacity:0.38912135"
         offset="1"
         id="stop4626" />
    </linearGradient>
    <linearGradient
       id="linearGradient4613"
       inkscape:collect="always">
      <stop
         id="stop4609"
         offset="0"
         style="stop-color:#38ff10;stop-opacity:1" />
      <stop
         id="stop4611"
         offset="1"
         style="stop-color:#145100;stop-opacity:0.98823529" />
    </linearGradient>
    <linearGradient
       id="linearGradient4607"
       inkscape:collect="always">
      <stop
         id="stop4603"
         offset="0"
         style="stop-color:#111111;stop-opacity:1" />
      <stop
         id="stop4605"
         offset="1"
         style="stop-color:#ffffff;stop-opacity:1" />
    </linearGradient>
    <linearGradient
       inkscape:collect="always"
       id="linearGradient4587">
      <stop
         style="stop-color:#dbdbdb;stop-opacity:1"
         offset="0"
         id="stop4583" />
      <stop
         style="stop-color:#050505;stop-opacity:1"
         offset="1"
         id="stop4585" />
    </linearGradient>
    <radialGradient
       r="33.998959"
       fy="-11.164368"
       fx="53.88459"
       cy="-11.164368"
       cx="53.88459"
       gradientTransform="matrix(4.2569042,-6.9576901e-4,6.218674e-4,3.8036119,-160.31834,13.398252)"
       gradientUnits="userSpaceOnUse"
       id="radialGradient4581"
       xlink:href="#linearGradient4587"
       inkscape:collect="always" />
    <radialGradient
       gradientTransform="matrix(4.4790333,0.07087943,-0.02531924,1.5999814,-238.70438,12.797404)"
       gradientUnits="userSpaceOnUse"
       r="15.478125"
       fy="-29.486176"
       fx="68.534081"
       cy="-29.486176"
       cx="68.534081"
       id="radialGradient4601"
       xlink:href="#linearGradient4607"
       inkscape:collect="always" />
    <radialGradient
       gradientTransform="matrix(2.4696938,-0.00862621,0.00793321,2.271273,-101.07921,26.977423)"
       gradientUnits="userSpaceOnUse"
       r="14.287499"
       fy="-26.746691"
       fx="68.845184"
       cy="-26.746691"
       cx="68.845184"
       id="radialGradient4615"
       xlink:href="#linearGradient4613"
       inkscape:collect="always" />
    <radialGradient
       r="14.287499"
       fy="-21.271061"
       fx="68.988297"
       cy="-21.271061"
       cx="68.988297"
       gradientTransform="matrix(2.2623593,0.01370126,-0.01337073,2.2077849,-87.228719,24.086629)"
       gradientUnits="userSpaceOnUse"
       id="radialGradient4622"
       xlink:href="#linearGradient4628"
       inkscape:collect="always" />
    <filter
       height="1.0072"
       y="-0.0035999999"
       width="1.0072"
       x="-0.0035999999"
       id="filter4634"
       style="color-interpolation-filters:sRGB"
       inkscape:collect="always">
      <feGaussianBlur
         id="feGaussianBlur4636"
         stdDeviation="0.046434374"
         inkscape:collect="always" />
    </filter>
    <linearGradient
       gradientTransform="matrix(1,0,0,-0.76468416,-0.18708867,-12.562527)"
       gradientUnits="userSpaceOnUse"
       y2="22.963326"
       x2="69.298134"
       y1="55.329666"
       x1="69.20459"
       id="linearGradient4646"
       xlink:href="#linearGradient4644"
       inkscape:collect="always" />
    <radialGradient
       r="33.998959"
       fy="-3.9797671"
       fx="52.23645"
       cy="-3.9797671"
       cx="52.23645"
       gradientTransform="matrix(4.5752379,-0.02928109,0.02896757,4.5262685,21.379267,-71.693813)"
       gradientUnits="userSpaceOnUse"
       id="radialGradient4662"
       xlink:href="#linearGradient4668"
       inkscape:collect="always" />
    <radialGradient
       gradientUnits="userSpaceOnUse"
       r="28.091982"
       fy="-21.43125"
       fx="68.923958"
       cy="-21.43125"
       cx="68.923958"
       id="radialGradient4702"
       xlink:href="#linearGradient4700"
       inkscape:collect="always" />
    <filter
       height="1.1992"
       y="-0.099600002"
       width="1.1992"
       x="-0.099600002"
       id="filter4816"
       style="color-interpolation-filters:sRGB"
       inkscape:collect="always">
      <feGaussianBlur
         id="feGaussianBlur4818"
         stdDeviation="2.3316345"
         inkscape:collect="always" />
    </filter>
    <filter
       y="-0.15"
       height="1.3"
       x="-0.15"
       width="1.3"
       inkscape:menu-tooltip="Aquarelle paper effect which can be used for pictures as for objects"
       inkscape:menu="Textures"
       inkscape:label="Rough Paper"
       style="color-interpolation-filters:sRGB;"
       id="filter4958">
      <feTurbulence
         type="fractalNoise"
         baseFrequency="0.04"
         numOctaves="5"
         seed="0"
         result="result4"
         id="feTurbulence4944" />
      <feDisplacementMap
         in="SourceGraphic"
         in2="result4"
         yChannelSelector="G"
         xChannelSelector="R"
         scale="10"
         result="result3"
         id="feDisplacementMap4946" />
      <feDiffuseLighting
         lighting-color="rgb(233,230,215)"
         diffuseConstant="1"
         surfaceScale="2"
         result="result1"
         in="result4"
         id="feDiffuseLighting4950">
        <feDistantLight
           azimuth="235"
           elevation="40"
           id="feDistantLight4948" />
      </feDiffuseLighting>
      <feComposite
         operator="in"
         in="result3"
         in2="result1"
         result="result2"
         id="feComposite4952" />
      <feComposite
         in2="result1"
         result="result5"
         operator="arithmetic"
         k1="1.7"
         id="feComposite4954" />
      <feBlend
         in="result5"
         in2="result3"
         mode="normal"
         id="feBlend4956" />
    </filter>
    <radialGradient
       inkscape:collect="always"
       xlink:href="#linearGradient5200"
       id="radialGradient5188"
       cx="64.296654"
       cy="-25.710361"
       fx="64.296654"
       fy="-25.710361"
       r="37.082887"
       gradientTransform="matrix(1.4401962,-0.01948212,0.02080422,1.5302714,-8.4741853,49.277364)"
       gradientUnits="userSpaceOnUse" />
    <radialGradient
       inkscape:collect="always"
       xlink:href="#linearGradient5186"
       id="radialGradient5194"
       gradientUnits="userSpaceOnUse"
       gradientTransform="matrix(1.4401962,-0.01948212,0.02080422,1.5302714,-9.3443652,-20.51106)"
       cx="64.296654"
       cy="-25.710361"
       fx="64.296654"
       fy="-25.710361"
       r="37.082887" />
  </defs>
  <metadata
     id="metadata5">
    <rdf:RDF>
      <cc:Work
         rdf:about="">
        <dc:format>image/svg+xml</dc:format>
        <dc:type
           rdf:resource="http://purl.org/dc/dcmitype/StillImage" />
        <dc:title />
      </cc:Work>
    </rdf:RDF>
  </metadata>
  <path
     style="opacity:1;fill:none;fill-opacity:0.98823529;fill-rule:evenodd;stroke:url(#radialGradient5188);stroke-width:0.72173148;stroke-linecap:round;stroke-miterlimit:4;stroke-dasharray:none"
     d="M 98.923233,9.0377794 C 105.02839,8.0923356 111.13846,6.9112951 117.19026,5.398537 110.89564,5.5166155 104.60707,5.7692566 98.335044,6.1748461 103.67967,6.4781694 109.05088,7.2182394 114.36716,8.2331266 109.21866,8.516438 104.0706,8.7845175 98.923233,9.0377794 Z m -0.221986,-2.902843 c 6.053063,-1.3208135 12.048923,-2.967281 17.924363,-5.0355231 -6.25649,0.6307129 -12.48388,1.437319 -18.671665,2.438204 5.320105,-0.2589077 10.720105,0.034823 16.118505,0.7192622 -5.12091,0.6466626 -10.24473,1.2725436 -15.371203,1.8780569 z M 98.314049,3.4643246 C 104.21751,1.6451651 110.00163,-0.58970549 115.6032,-3.3364078 109.45834,-2.0521855 103.36565,-0.55073935 97.335608,1.1863162 102.58724,0.23598702 107.97208,-0.04581238 113.40865,0.17898845 108.38329,1.300294 103.35167,2.395268 98.314049,3.4643246 Z M 97.684851,1.0716439 c 1.060623,-0.45761561 2.114865,-0.93301414 3.162309,-1.42682926 4.54169,-2.12584944 8.95395,-4.63811294 13.13213,-7.55335194 -5.93952,2.1090738 -11.77124,4.4901099 -17.459687,7.15105239 4.558957,-1.66815749 9.427767,-2.67662109 14.377677,-3.08927139 0.46642,-0.040722 0.93367,-0.076718 1.4017,-0.1080901 -4.86186,1.7072402 -9.73332,3.38259889 -14.614129,5.0264903 z M 96.848193,-0.92390253 C 102.13094,-4.1332615 107.06804,-7.9474017 111.4644,-12.397201 c -5.49129,3.0631887 -10.79566,6.4168434 -15.877632,10.0689081 4.509792,-2.7599048 9.599402,-4.6635516 14.969052,-5.7946524 -4.54874,2.4372638 -9.11822,4.8368903 -13.707627,7.19904277 z M 95.879006,-2.5503319 c 4.388254,-3.8197915 8.300864,-8.2030431 11.572854,-13.1758731 0.18619,-0.2843 0.37019,-0.570289 0.55199,-0.857937 -4.78818,4.096009 -9.278356,8.4853375 -13.472321,13.1321502 1.343349,-1.2998602 2.7791,-2.5108817 4.30723,-3.6194443 2.801891,-2.0323439 5.888701,-3.6919219 9.179581,-5.0013139 -4.01507,3.21389 -8.061786,6.3879749 -12.139334,9.5224181 z m -1.108163,-1.1801373 c 3.718196,-4.9042252 6.693747,-10.3813988 8.948777,-16.2377478 -3.815336,4.993655 -7.335943,10.20046 -10.563626,15.5845769 3.084174,-4.3323076 6.914156,-8.1713349 11.489436,-11.2097349 -3.24975,3.988603 -6.541259,7.9431772 -9.874587,11.8629058 z M 93.336102,-4.704396 c 2.627317,-5.568419 4.537141,-11.526002 5.751594,-17.678975 -2.845984,5.621925 -5.400526,11.376828 -7.665427,17.2288721 2.339949,-4.7623042 5.433641,-9.2474671 9.280571,-13.1481391 -2.414618,4.556092 -4.870179,9.0891115 -7.366738,13.598242 z m -1.791844,-0.7973978 c 0.331458,-1.2449737 0.632826,-2.4988732 0.904307,-3.7599427 1.016575,-4.7936545 1.637369,-9.6703055 1.91999,-14.5987815 -1.927978,5.974507 -3.615649,12.014644 -5.08361,18.1075149 1.597061,-4.5108059 3.640449,-8.8821539 6.253733,-13.0274349 0.298018,-0.468199 0.603902,-0.932915 0.917653,-1.393824 -1.597218,4.903211 -3.234555,9.794306 -4.912073,14.6724682 z m -2.18678,-0.6112213 C 90.015108,-12.2389 90.1286,-18.453057 89.814121,-24.69263 c -1.191256,6.172715 -2.18799,12.381793 -3.0108,18.61434 1.304768,-5.194621 3.045668,-10.304656 5.393149,-15.21064 -0.91576,5.064978 -1.861932,10.123711 -2.838992,15.1759149 z m -2.521211,-0.3320833 c -0.07202,-6.1821836 -0.576387,-12.3953366 -1.396931,-18.5766006 -0.605452,6.268406 -1.062169,12.543909 -1.390746,18.8136153 0.946419,-5.2612103 2.212046,-10.5260563 3.967329,-15.6750723 -0.369048,5.148565 -0.762106,10.294679 -1.179652,15.4380576 z m -2.785158,-0.1310899 c -0.13399,-1.2988515 -0.282199,-2.5965349 -0.44354,-3.8924627 -0.616321,-4.846949 -1.373236,-9.699899 -2.325175,-14.529845 -0.181649,6.290912 -0.239138,12.583589 -0.151463,18.8684958 0.523337,-4.7750758 1.382265,-9.5530588 2.444154,-14.2818498 0.124157,-0.546106 0.2521,-1.09205 0.384015,-1.637699 0.04844,5.156539 0.07927,10.31442 0.09201,15.4733607 z m -2.94176,0.078462 c -1.026887,-6.109683 -2.360057,-12.182996 -4.110162,-18.160974 0.303545,6.281516 0.778416,12.543911 1.445618,18.7776488 0.03205,-5.3282458 0.612526,-10.7063748 1.557522,-16.0621448 0.388594,5.146892 0.757443,10.295458 1.107022,15.44547 z m -2.71852,0.2531131 c -1.506383,-5.9924011 -3.423014,-11.8900141 -5.860545,-17.6338721 0.948996,6.206445 2.116486,12.372884 3.523474,18.489779 -0.664107,-5.296922 -0.648662,-10.689996 -0.137578,-16.10698 0.850828,5.079017 1.675553,10.162784 2.474649,15.2510731 z m -2.432595,0.5008739 c -0.283125,-0.7688223 -0.575342,-1.5349355 -0.876913,-2.2982008 -1.947312,-4.9774082 -4.342028,-9.8427322 -7.223039,-14.4555402 1.792257,6.045581 3.868197,11.99466 6.24129,17.80837 -1.511906,-4.8332748 -2.257929,-9.985864 -2.353131,-15.174228 -0.0058,-0.249592 -0.01017,-0.499339 -0.01327,-0.749234 1.440658,4.948529 2.848853,9.904882 4.225062,14.868833 z m -2.008162,0.7179798 C 71.024135,-10.472153 67.458801,-15.591949 63.194397,-20.169685 c 2.802858,5.626434 5.920328,11.0697388 9.365879,16.2910498 -2.600026,-4.5993442 -4.257468,-9.7758018 -5.104807,-15.2029018 2.204784,4.665844 4.369556,9.3514017 6.494603,14.0557778 z m -1.599375,0.8460213 C 69.228225,-8.118341 65.643239,-11.700648 61.563104,-14.808814 c -0.906263,-0.687265 -1.834328,-1.34901 -2.782887,-1.985367 3.931889,4.918113 8.183634,9.5325255 12.715222,13.8447355 -1.607876,-1.7360719 -3.061867,-3.6227917 -4.331066,-5.6597121 -1.565998,-2.5144554 -2.832417,-5.2288734 -3.821498,-8.0884454 3.046357,4.141209 6.048869,8.3141291 9.007822,12.5178651 z M 71.22397,-3.1962805 C 66.445857,-7.0634046 61.039333,-10.169314 55.220927,-12.53592 c 4.905843,3.9269895 10.04204,7.5527945 15.368577,10.8789132 -4.2859,-3.1509953 -8.047305,-7.0633839 -10.941281,-11.7322022 3.895966,3.354941 7.754852,6.7525658 11.575747,10.1929285 z m -0.951793,1.3529919 C 64.762491,-4.5895409 58.829822,-6.6000117 52.690699,-7.896613 c 5.579176,2.9359156 11.299202,5.5731624 17.120067,7.91323878 -4.730391,-2.39050348 -9.17734,-5.55435038 -12.997915,-9.48657748 4.511589,2.5002762 8.998335,5.042479 13.459326,7.6266631 z m -0.807019,1.73319885 C 68.484748,-0.38715213 67.49843,-0.64492578 66.507173,-0.88350876 61.474489,-2.0705603 56.344325,-2.815452 51.151703,-3.1859795 c 5.944544,2.0091621 11.957244,3.77958353 18.025706,5.3319284 -4.646588,-1.71958875 -9.136226,-3.9137385 -13.376072,-6.7204655 -0.315331,-0.2115228 -0.62892,-0.4268054 -0.940653,-0.6458459 4.881068,1.6622361 9.74953,3.3656422 14.604474,5.11027275 z M 68.818638,2.0684418 C 62.7057,1.3266271 56.497804,1.1259092 50.255059,1.3499279 c 6.152674,1.2782324 12.34536,2.3636723 18.565663,3.2769836 -5.1773,-1.3816639 -10.258609,-3.19371 -15.128729,-5.60739114 5.04897,0.9859463 10.091276,2.00209414 15.126645,3.04892144 z m -0.364182,2.520234 C 62.27411,4.5729483 56.053492,4.9863967 49.852713,5.7126608 56.11475,6.4115331 62.388654,6.963561 68.662032,7.3894084 63.404196,6.3581854 58.15711,5.0141764 53.035973,3.1861285 58.178583,3.6297012 63.318168,4.0970576 68.454456,4.5886758 Z M 68.29355,7.3812583 C 64.558094,7.7106447 60.827904,8.155935 57.116254,8.6914347 54.68436,9.0398319 52.250279,9.4217649 49.81808,9.8444494 56.101839,10.126371 62.396553,10.308468 68.691514,10.368572 65.464458,9.9221465 62.241646,9.3454802 59.041266,8.6818192 56.959472,8.2499429 54.876951,7.7716393 52.800751,7.2364279 c 5.163742,0.030751 10.3281,0.078869 15.492799,0.1448304 z m 0.02946,3.0009487 C 62.192554,11.304135 56.073368,12.479372 50.031182,14.024491 56.330555,13.89984 62.6174,13.625567 68.881009,13.179502 63.547767,12.932226 58.173392,12.191468 52.839631,11.151632 58.00038,10.878718 63.161593,10.622409 68.323014,10.382207 Z m 0.192178,2.839029 c -6.0506,1.330069 -12.024954,3.022897 -17.857336,5.195058 6.240845,-0.700557 12.44568,-1.600533 18.603796,-2.722099 -5.29985,0.395645 -10.69353,0.159074 -16.099292,-0.515311 5.113789,-0.675696 10.231484,-1.328078 15.352832,-1.957648 z m 0.388215,2.55245 c -5.867314,1.888673 -11.593409,4.249556 -17.11256,7.199222 3.194277,-0.75608 6.372283,-1.580315 9.532488,-2.475877 2.882675,-0.81745 5.747786,-1.70461 8.590333,-2.662165 -0.775887,0.190775 -1.557586,0.362344 -2.343786,0.514955 -4.479195,0.821007 -9.055485,1.105638 -13.678611,0.973409 4.99678,-1.213034 10.000911,-2.396049 15.012136,-3.549544 z m 0.665,2.18928 c -5.596591,2.571268 -10.955954,5.827431 -15.826146,9.786775 5.815062,-2.444631 11.474191,-5.207329 16.931339,-8.294388 -4.777545,2.264045 -10.087711,3.609021 -15.539414,4.109246 4.796972,-1.909052 9.60873,-3.776223 14.434221,-5.601633 z m 0.789752,1.681798 c -5.077081,3.515384 -9.676978,7.727703 -13.547745,12.655245 5.175558,-3.554484 10.092349,-7.442073 14.704328,-11.669062 -4.088002,3.349649 -8.981831,5.718318 -14.290404,7.180322 4.349364,-2.765594 8.727655,-5.487722 13.133821,-8.166505 z m 0.891255,1.239294 c -2.255883,2.384869 -4.306148,4.973015 -6.112115,7.767246 -1.565624,2.421671 -2.938584,4.971608 -4.131294,7.626313 4.176506,-4.69271 8.003194,-9.654444 11.500074,-14.840722 -2.125187,2.746921 -4.600681,5.227103 -7.469383,7.330197 -1.497282,1.09576 -3.091372,2.074468 -4.766468,2.939127 3.61701,-3.652397 7.27709,-7.259744 10.979186,-10.822161 z m 1.058885,0.861586 c -2.996362,5.353753 -5.156343,11.207147 -6.603801,17.325799 3.084208,-5.483052 5.86241,-11.13525 8.354615,-16.912115 -2.520879,4.702517 -5.756811,9.064374 -9.859182,12.696201 2.656338,-4.399687 5.358967,-8.769983 8.108368,-13.109885 z m 1.615235,0.756483 c -1.827489,5.894647 -2.941347,12.068696 -3.46543,18.287762 0.775384,-2.160608 1.51601,-4.330399 2.222842,-6.507226 1.231815,-3.801484 2.372984,-7.624893 3.429445,-11.467965 -0.38858,0.987594 -0.798007,1.968624 -1.229817,2.94241 -1.706207,3.90338 -3.827871,7.716554 -6.442637,11.239817 1.788537,-4.847858 3.61691,-9.679792 5.485597,-14.494798 z m 2.103152,0.670447 c -0.837923,6.120389 -1.153224,12.31649 -1.074196,18.54851 1.40053,-6.12009 2.619935,-12.277442 3.681307,-18.463254 -1.518775,5.130265 -3.427065,10.160615 -5.918484,15.005493 1.074613,-5.036023 2.178227,-10.066335 3.311373,-15.090749 z m 2.560505,0.44995 c -0.143715,6.172163 0.112357,12.384924 0.639923,18.59849 0.86842,-6.230198 1.607168,-12.477492 2.239333,-18.733082 -1.225603,5.227198 -2.706666,10.41943 -4.636805,15.491136 0.563806,-5.122099 1.149478,-10.24101 1.757549,-15.356544 z m 2.859524,0.233238 c 0.371334,6.185386 1.019619,12.376255 1.816563,18.532813 0.07177,-0.887047 0.141967,-1.774032 0.210666,-2.660932 0.438097,-5.373875 0.773693,-10.760671 0.996014,-16.152865 -0.233027,1.425919 -0.497403,2.849222 -0.790177,4.26807 -0.838283,3.835898 -1.769216,7.675497 -2.868309,11.485428 0.196838,-5.158233 0.408409,-10.315801 0.635243,-15.472514 z m 3.024237,0.08723 c 0.672945,6.146842 1.680324,12.292928 3.110421,18.367906 0.0361,-6.296755 -0.10281,-12.586496 -0.433749,-18.857335 -0.320884,5.327505 -1.182277,10.681432 -2.433216,15.967662 -0.102026,-5.159864 -0.183051,-10.319368 -0.243456,-15.478233 z m 2.711071,-0.122891 c 1.185103,6.074672 2.787093,12.079817 4.894258,17.945082 -0.608256,-6.254493 -1.429843,-12.475744 -2.481793,-18.651865 0.345609,5.307139 0.04222,10.703172 -0.759206,16.093977 -0.577085,-5.125752 -1.128044,-10.25491 -1.653259,-15.387194 z m 2.487659,-0.347286 c 1.808722,5.896211 4.116788,11.654123 7.012484,17.203384 C 96.240694,38.72112 95.773605,36.772099 95.280345,34.829518 94.23,30.682666 93.050856,26.567287 91.741757,22.493698 c 0.249278,1.11172 0.463188,2.233687 0.642178,3.363191 0.642908,4.161763 0.837399,8.404681 0.656868,12.682992 -1.154831,-5.015278 -2.27841,-10.037728 -3.371121,-15.06707 z m 2.196114,-0.632462 c 2.538682,5.620366 5.699897,11.013516 9.492234,16.000944 -2.316415,-5.859186 -4.91829,-11.587934 -7.809286,-17.15357 2.04639,4.890103 3.279047,10.198959 3.743781,15.648689 C 95.44569,32.51762 93.636803,27.68535 91.865796,22.840349 Z m 1.862176,-0.831352 c 3.396484,5.154936 7.419878,9.912738 12.078758,14.094899 -3.30381,-5.344454 -6.901948,-10.485482 -10.798065,-15.390409 2.989153,4.37489 5.125505,9.362828 6.454855,14.685937 -2.617318,-4.440218 -5.195812,-8.903943 -7.735548,-13.390427 z m 1.516449,-1.014009 c 2.249289,2.356093 4.675872,4.552931 7.281029,6.563946 2.31001,1.782711 4.75098,3.408411 7.30435,4.876927 -4.31743,-4.570889 -8.90158,-8.858579 -13.719648,-12.86068 2.522576,2.426419 4.762348,5.167199 6.638628,8.212227 0.96162,1.560785 1.82418,3.193276 2.58947,4.886641 -3.40429,-3.859732 -6.768876,-7.753002 -10.093829,-11.679061 z m 1.154268,-1.192662 c 5.071861,3.478637 10.661171,6.249743 16.589181,8.31165 -5.13481,-3.632368 -10.46303,-6.975507 -15.95188,-10.027027 4.42442,2.952396 8.39714,6.655974 11.63866,11.075708 -4.12308,-3.079948 -8.21532,-6.200071 -12.275961,-9.360331 z m 0.9641,-1.546013 c 5.664651,2.431328 11.676751,4.157335 17.857531,5.176352 -4.44911,-2.079044 -8.97122,-3.978627 -13.55081,-5.697616 -1.29379,-0.487267 -2.591645,-0.961249 -3.893412,-1.422138 0.332604,0.153664 0.663982,0.3106 0.994092,0.470857 4.45932,2.128373 8.68009,4.93285 12.43687,8.385179 -4.63579,-2.263561 -9.2508,-4.567785 -13.844271,-6.912634 z m 0.763794,-1.832298 c 6.023127,1.380532 12.189427,2.09906 18.428427,2.259113 -6.02839,-1.747544 -12.11951,-3.247708 -18.259201,-4.518679 5.081301,1.606513 10.000681,3.79536 14.629041,6.715826 -4.94269,-1.447926 -9.87555,-2.933206 -14.798267,-4.45626 z m 0.531468,-2.198449 c 6.142259,0.471931 12.362879,0.381797 18.591369,-0.166873 -6.21391,-0.978908 -12.45853,-1.750808 -18.71971,-2.333887 5.24108,1.088789 10.41471,2.65811 15.3918,4.857246 -5.09356,-0.753674 -10.18149,-1.539029 -15.263459,-2.356486 z m 0.239588,-2.481518 C 105.07578,11.456598 111.26746,10.707022 117.4022,9.5988477 111.11401,9.256083 104.82712,9.0799538 98.555688,9.0522732 103.84478,9.7212328 109.16092,10.768921 114.37499,12.344622 109.21432,12.170579 104.0551,11.970528 98.897639,11.744048 Z"
     id="path5099"
     inkscape:path-effect="#path-effect5111"
     inkscape:original-d="M 107.95508,8.6808945 C 107.29358,-8.0599855 99.584928,-15.674957 83.590731,-15.622703 68.236,-15.572543 59.134871,-9.6407355 59.226386,8.6808945 59.323436,28.109539 68.236001,32.718556 83.590731,32.984491 99.582606,33.26146 108.59739,24.936411 107.95508,8.6808945 Z"
     inkscape:connector-curvature="0"
     sodipodi:nodetypes="sssss"
     inkscape:export-filename="C:\dev\quadrat\src\battle\ability_red.png"
     inkscape:export-xdpi="24.081503"
     inkscape:export-ydpi="24.081503"
     inkscape:label="ability_red"
     sodipodi:insensitive="true" />
  <g
     inkscape:export-ydpi="24"
     inkscape:export-xdpi="24"
     transform="matrix(-0.89423991,0,0,0.89423991,52.313998,-37.872157)"
     id="g4837"
     sodipodi:insensitive="true">
    <circle
       style="display:inline;opacity:1;fill:url(#radialGradient4581);fill-opacity:1;stroke:none;stroke-width:1;stroke-miterlimit:4;stroke-dasharray:none"
       id="path4553"
       cx="68.923958"
       cy="-21.43125"
       r="33.998959"
       inkscape:label="piece" />
    <path
       style="display:inline;opacity:1;fill:url(#radialGradient4662);fill-opacity:1;stroke:none;stroke-width:4.51001453;stroke-miterlimit:4;stroke-dasharray:none"
       d="M 260.5,-209.5 A 128.5,128.5 0 0 0 132,-81 128.5,128.5 0 0 0 260.5,47.5 128.5,128.5 0 0 0 389,-81 128.5,128.5 0 0 0 260.5,-209.5 Z"
       transform="scale(0.26458333)"
       id="circle4660"
       inkscape:connector-curvature="0"
       inkscape:label="piece shade" />
    <path
       inkscape:export-ydpi="24"
       inkscape:export-xdpi="24"
       inkscape:connector-curvature="0"
       id="path4694"
       d="M 68.923957,-49.523231 A 28.091981,28.091981 0 0 0 40.831976,-21.43125 28.091981,28.091981 0 0 0 68.923957,6.6607316 28.091981,28.091981 0 0 0 97.015939,-21.43125 28.091981,28.091981 0 0 0 68.923957,-49.523231 Z"
       style="display:inline;opacity:1;fill:url(#radialGradient4702);fill-opacity:1;stroke:none;stroke-width:0.98595518;stroke-miterlimit:4;stroke-dasharray:none;filter:url(#filter4816)"
       transform="matrix(1.1242021,0,0,1.1242021,-8.5605002,2.6618061)"
       inkscape:label="piece white" />
    <circle
       inkscape:label="kant"
       cy="-21.43125"
       cx="68.923958"
       id="circle4593"
       style="display:inline;opacity:1;fill:url(#radialGradient4601);fill-opacity:1;stroke:none;stroke-width:1.08333337;stroke-miterlimit:4;stroke-dasharray:none;filter:url(#filter4634)"
       r="15.478125"
       transform="matrix(1.027909,0,0,1.027909,-1.9236018,0.59812569)" />
    <circle
       style="display:inline;opacity:1;fill:url(#radialGradient4615);fill-opacity:1;stroke:none;stroke-width:1.00925922;stroke-miterlimit:4;stroke-dasharray:none"
       id="path4589"
       cx="68.923958"
       cy="-21.43125"
       r="14.419791"
       inkscape:label="pimp" />
    <circle
       inkscape:label="pimp shade"
       r="14.419791"
       cy="-21.43125"
       cx="68.923958"
       id="circle4617"
       style="display:inline;opacity:1;fill:url(#radialGradient4622);fill-opacity:1;stroke:none;stroke-width:1.00925922;stroke-miterlimit:4;stroke-dasharray:none" />
    <path
       id="path4656"
       style="display:inline;opacity:1;fill:#ffffff;fill-opacity:0.7782427;stroke:none;stroke-width:0.8523553;stroke-miterlimit:4;stroke-dasharray:none"
       d="m 57.399656,-22.790416 c 0.183562,-1.347679 0.463993,-2.385103 1.032212,-3.820193 l 3.352665,1.961731 c -0.454134,1.199247 -0.532092,1.716232 -0.579228,2.463469 z m 1.352303,-4.441538 c 1.174741,-2.203537 2.881683,-4.174356 5.564228,-4.932225 l 1.690663,3.155104 c -1.839153,0.772401 -3.17533,2.196947 -3.934997,3.751528 z"
       inkscape:connector-curvature="0"
       sodipodi:nodetypes="cccccccccc"
       inkscape:label="pimp blick" />
    <path
       style="display:inline;opacity:1;fill:url(#linearGradient4646);fill-opacity:1;stroke:none;stroke-width:0.87446219;stroke-miterlimit:4;stroke-dasharray:none"
       d="m 91.561686,-42.568764 c -10e-7,-6.775272 -10.020237,-12.84275 -22.626035,-12.842751 -12.605799,0 -23.023599,6.067479 -23.0236,12.842751 0,6.775272 10.219019,12.267715 22.824818,12.267715 12.605799,0 22.824817,-5.492443 22.824817,-12.267715 z"
       id="path4638"
       inkscape:connector-curvature="0"
       sodipodi:nodetypes="sssss"
       inkscape:label="halo" />
  </g>
  <path
     inkscape:export-ydpi="24.081503"
     inkscape:export-xdpi="24.081503"
     inkscape:export-filename="C:\dev\quadrat\src\battle\ability_green.png"
     sodipodi:nodetypes="sssss"
     inkscape:connector-curvature="0"
     inkscape:original-d="m 107.0849,-61.107529 c -0.6615,-16.74088 -8.370152,-24.355852 -24.364349,-24.303598 -15.354731,0.05016 -24.45586,5.981968 -24.364345,24.303598 0.09705,19.428645 9.009615,24.037662 24.364345,24.303597 15.991875,0.276969 25.006659,-8.04808 24.364349,-24.303597 z"
     inkscape:path-effect="#path-effect5192"
     id="path5190"
     d="m 98.053054,-60.750644 c 6.105156,-0.945444 12.215226,-2.126484 18.267026,-3.639242 -6.29462,0.118078 -12.58319,0.370719 -18.855215,0.776309 5.344625,0.303323 10.715835,1.043393 16.032115,2.05828 -5.1485,0.283311 -10.29656,0.551391 -15.443926,0.804653 z m -0.221986,-2.902843 c 6.053062,-1.320814 12.048922,-2.967281 17.924362,-5.035523 -6.25649,0.630713 -12.48388,1.437319 -18.671664,2.438204 5.320104,-0.258908 10.720104,0.03482 16.118504,0.719262 -5.12091,0.646663 -10.24473,1.272543 -15.371202,1.878057 z m -0.387199,-2.670612 c 5.903461,-1.81916 11.687581,-4.05403 17.289151,-6.800732 -6.14486,1.284222 -12.23755,2.785668 -18.267592,4.522723 5.251632,-0.950329 10.636482,-1.232128 16.073042,-1.007327 -5.02536,1.121305 -10.05698,2.216279 -15.094601,3.285336 z m -0.629197,-2.392681 c 1.060623,-0.457616 2.114865,-0.933014 3.162309,-1.426829 4.541689,-2.12585 8.953949,-4.638113 13.132129,-7.553351 -5.93952,2.109073 -11.77124,4.490109 -17.459686,7.151051 4.558956,-1.668157 9.427766,-2.676621 14.377676,-3.089271 0.46642,-0.04072 0.93367,-0.07672 1.4017,-0.10809 -4.86186,1.70724 -9.73332,3.382599 -14.614128,5.02649 z m -0.836658,-1.995547 c 5.282746,-3.209358 10.219836,-7.023498 14.616206,-11.473297 -5.49129,3.063188 -10.795656,6.416843 -15.877631,10.068907 4.509792,-2.759905 9.599401,-4.663551 14.969051,-5.794652 -4.54874,2.437264 -9.11822,4.83689 -13.707626,7.199042 z m -0.969187,-1.626429 c 4.38825,-3.819792 8.300863,-8.203044 11.572853,-13.175874 0.18619,-0.284299 0.37019,-0.570287 0.55199,-0.857934 -4.78818,4.096007 -9.278356,8.485336 -13.47232,13.132148 1.343349,-1.29986 2.779099,-2.510881 4.307229,-3.619444 2.801891,-2.032344 5.888701,-3.691922 9.179581,-5.001314 -4.01507,3.21389 -8.061785,6.387975 -12.139333,9.522418 z m -1.108164,-1.180138 c 3.718196,-4.904224 6.693747,-10.381397 8.948777,-16.237746 -3.815336,4.993655 -7.335943,10.200459 -10.563625,15.584575 3.084173,-4.332307 6.914155,-8.171335 11.489435,-11.209734 -3.24975,3.988603 -6.541259,7.943177 -9.874587,11.862905 z m -1.43474,-0.973927 c 2.627317,-5.568418 4.53714,-11.526001 5.751593,-17.678973 -2.845984,5.621925 -5.400525,11.376827 -7.665426,17.22887 2.339948,-4.762304 5.433641,-9.247466 9.280574,-13.148138 -2.414622,4.556091 -4.870182,9.089111 -7.366741,13.598241 z m -1.791845,-0.797397 c 0.331458,-1.244975 0.632827,-2.498875 0.904307,-3.759945 1.016575,-4.793653 1.63737,-9.670303 1.91999,-14.598778 -1.927977,5.974506 -3.615649,12.014643 -5.08361,18.107513 1.597062,-4.510805 3.640449,-8.882153 6.253733,-13.027433 0.298018,-0.4682 0.603902,-0.932916 0.917653,-1.393826 -1.597217,4.903211 -3.234555,9.794306 -4.912073,14.672469 z m -2.186779,-0.611222 c 0.657629,-6.125884 0.771121,-12.340041 0.456642,-18.579613 -1.191255,6.172714 -2.18799,12.381792 -3.010799,18.614338 1.304767,-5.194621 3.045667,-10.304656 5.393149,-15.21064 -0.915761,5.064979 -1.861933,10.123711 -2.838992,15.175915 z m -2.521211,-0.332083 c -0.07202,-6.182184 -0.576388,-12.395336 -1.396932,-18.576599 -0.605452,6.268405 -1.062168,12.543908 -1.390746,18.813614 0.94642,-5.261211 2.212046,-10.526057 3.967329,-15.675073 -0.369047,5.148565 -0.762106,10.294679 -1.179651,15.438058 z m -2.785159,-0.13109 c -0.13399,-1.298852 -0.282199,-2.596536 -0.44354,-3.892465 -0.616321,-4.846948 -1.373236,-9.699896 -2.325175,-14.529841 -0.181649,6.290911 -0.239138,12.583588 -0.151463,18.868494 0.523337,-4.775076 1.382265,-9.553058 2.444154,-14.281849 0.124158,-0.546106 0.2521,-1.09205 0.384015,-1.637699 0.04844,5.156538 0.07927,10.31442 0.09201,15.47336 z m -2.94176,0.07846 c -1.026887,-6.109682 -2.360056,-12.182995 -4.110161,-18.160972 0.303544,6.281515 0.778415,12.54391 1.445617,18.777647 0.03205,-5.328246 0.612526,-10.706375 1.557523,-16.062145 0.388593,5.146892 0.757442,10.295458 1.107021,15.44547 z m -2.718519,0.253113 c -1.506384,-5.9924 -3.423014,-11.890013 -5.860545,-17.63387 0.948996,6.206445 2.116486,12.372883 3.523473,18.489777 -0.664106,-5.296922 -0.648662,-10.689996 -0.137577,-16.10698 0.850828,5.079017 1.675552,10.162785 2.474649,15.251073 z m -2.432596,0.500874 c -0.283125,-0.768823 -0.575343,-1.534937 -0.876914,-2.298203 -1.947312,-4.977407 -4.342027,-9.84273 -7.223037,-14.455536 1.792256,6.04558 3.868196,11.994658 6.241289,17.808368 -1.511906,-4.833274 -2.257929,-9.985863 -2.353131,-15.174226 -0.0058,-0.249593 -0.01017,-0.49934 -0.01327,-0.749235 1.440658,4.948528 2.848853,9.904881 4.225062,14.868832 z m -2.008162,0.71798 c -2.925937,-5.446393 -6.491271,-10.566189 -10.755674,-15.143924 2.802858,5.626433 5.920327,11.069738 9.365878,16.291048 -2.600027,-4.599344 -4.257468,-9.775802 -5.104807,-15.202902 2.204784,4.665845 4.369556,9.351402 6.494603,14.055778 z m -1.599375,0.846021 c -3.122473,-3.938603 -6.707459,-7.520911 -10.787595,-10.629077 -0.906261,-0.687264 -1.834326,-1.349008 -2.782884,-1.985365 3.931889,4.918113 8.183633,9.532525 12.715221,13.844735 -1.607876,-1.736071 -3.061866,-3.622791 -4.331065,-5.65971 -1.565999,-2.514457 -2.832418,-5.228875 -3.821499,-8.088448 3.046357,4.14121 6.048868,8.314129 9.007822,12.517865 z m -1.126727,0.983458 c -4.778113,-3.867124 -10.184637,-6.973033 -16.003042,-9.339639 4.905843,3.926989 10.042039,7.552794 15.368576,10.878913 -4.285901,-3.150996 -8.047305,-7.063384 -10.941281,-11.732203 3.895966,3.354942 7.754852,6.752566 11.575747,10.192929 z m -0.951794,1.352992 c -5.509685,-2.746252 -11.442354,-4.756723 -17.581476,-6.053324 5.579175,2.935916 11.299201,5.573162 17.120066,7.913239 -4.730391,-2.390504 -9.177341,-5.554351 -12.997915,-9.486578 4.511588,2.500276 8.998334,5.042479 13.459325,7.626663 z m -0.807018,1.733199 c -0.980412,-0.277063 -1.966731,-0.534837 -2.957989,-0.77342 -5.032682,-1.187051 -10.162845,-1.931942 -15.355465,-2.30247 5.944544,2.009162 11.957243,3.779584 18.025704,5.331929 -4.646587,-1.719589 -9.136224,-3.913738 -13.37607,-6.720465 -0.315331,-0.211523 -0.628921,-0.426806 -0.940655,-0.645847 4.881068,1.662236 9.74953,3.365642 14.604475,5.110273 z m -0.646521,2.178532 c -6.112937,-0.741815 -12.320833,-0.942533 -18.563577,-0.718514 6.152674,1.278232 12.345359,2.363672 18.565661,3.276983 -5.1773,-1.381664 -10.258609,-3.19371 -15.128729,-5.607391 5.048971,0.985946 10.091277,2.002094 15.126645,3.048922 z m -0.364182,2.520234 c -6.180345,-0.01573 -12.400963,0.397721 -18.601741,1.123985 6.262036,0.698872 12.53594,1.2509 18.809317,1.676747 -5.257836,-1.031223 -10.504922,-2.375232 -15.626059,-4.20328 5.14261,0.443573 10.282196,0.910929 15.418483,1.402548 z m -0.160905,2.792582 c -3.735458,0.329387 -7.465649,0.774677 -11.1773,1.310177 -2.431893,0.348397 -4.865972,0.73033 -7.298169,1.153014 6.283758,0.281921 12.578472,0.464019 18.873433,0.524123 -3.227056,-0.446425 -6.449867,-1.023092 -9.650246,-1.686752 -2.081795,-0.431877 -4.164317,-0.910181 -6.240518,-1.445392 5.163743,0.03075 10.3281,0.07887 15.4928,0.14483 z m 0.02946,3.000949 c -6.13046,0.921928 -12.249645,2.097165 -18.29183,3.642283 6.299372,-0.124651 12.586217,-0.398923 18.849826,-0.844988 -5.333243,-0.247276 -10.707618,-0.988034 -16.041379,-2.02787 5.160749,-0.272915 10.321962,-0.529223 15.483383,-0.769425 z m 0.192178,2.839029 c -6.0506,1.330069 -12.024953,3.022897 -17.857334,5.195057 6.240844,-0.700556 12.445679,-1.600532 18.603794,-2.722098 -5.29985,0.395645 -10.69353,0.159074 -16.099292,-0.515311 5.113789,-0.675696 10.231485,-1.328078 15.352832,-1.957648 z m 0.388215,2.55245 c -5.867313,1.888673 -11.593408,4.249556 -17.112559,7.199221 3.194282,-0.756081 6.372294,-1.580318 9.532504,-2.475881 2.882669,-0.817448 5.747774,-1.704606 8.590316,-2.662159 -0.775885,0.190775 -1.557583,0.362343 -2.343782,0.514953 -4.479196,0.821008 -9.055488,1.105639 -13.678615,0.97341 4.99678,-1.213034 10.000911,-2.396049 15.012136,-3.549544 z m 0.665,2.189281 c -5.59659,2.571268 -10.955954,5.827429 -15.826145,9.786774 5.815062,-2.444632 11.47419,-5.207328 16.931339,-8.294387 -4.777546,2.264044 -10.087712,3.60902 -15.539415,4.109245 4.796972,-1.909052 9.60873,-3.776223 14.434221,-5.601632 z m 0.789752,1.681798 c -5.077081,3.515383 -9.676977,7.727701 -13.547744,12.655243 5.175557,-3.554484 10.092348,-7.442072 14.704327,-11.669059 -4.088002,3.349648 -8.981832,5.718316 -14.290404,7.18032 4.349364,-2.765594 8.727655,-5.487722 13.133821,-8.166504 z m 0.891255,1.239294 c -2.255885,2.384871 -4.306151,4.973019 -6.112119,7.767251 -1.565623,2.42167 -2.938581,4.971604 -4.13129,7.626306 4.176506,-4.692709 8.003195,-9.654443 11.500074,-14.84072 -2.125186,2.74692 -4.600678,5.227101 -7.469379,7.330194 -1.497284,1.095761 -3.091375,2.07447 -4.766472,2.939129 3.61701,-3.652396 7.27709,-7.259743 10.979186,-10.82216 z m 1.058885,0.861586 c -2.996361,5.353752 -5.156343,11.207146 -6.603801,17.325798 3.084208,-5.483052 5.86241,-11.135249 8.354616,-16.912113 -2.52088,4.702517 -5.756813,9.064373 -9.859184,12.6962 2.656338,-4.399687 5.358968,-8.769983 8.108369,-13.109885 z m 1.615235,0.756483 c -1.827489,5.894647 -2.941347,12.068695 -3.46543,18.287761 0.775386,-2.160614 1.516014,-4.330411 2.222848,-6.507244 1.231813,-3.801477 2.37298,-7.62488 3.429439,-11.467945 -0.38858,0.987592 -0.798005,1.96862 -1.229815,2.942404 -1.706207,3.903383 -3.827873,7.716558 -6.442639,11.239822 1.788537,-4.847858 3.616909,-9.679792 5.485597,-14.494798 z m 2.103152,0.670448 c -0.837923,6.120388 -1.153224,12.316489 -1.074196,18.548508 1.40053,-6.120089 2.619935,-12.27744 3.681308,-18.463252 -1.518776,5.130265 -3.427066,10.160615 -5.918486,15.005492 1.074614,-5.036022 2.178228,-10.066335 3.311374,-15.090748 z m 2.560505,0.449949 c -0.143715,6.172163 0.112357,12.384924 0.639923,18.598489 0.86842,-6.230197 1.607167,-12.477491 2.239333,-18.733081 -1.225603,5.227199 -2.706666,10.419431 -4.636805,15.491137 0.563805,-5.122099 1.149478,-10.24101 1.757549,-15.356545 z m 2.859524,0.233239 c 0.371334,6.185385 1.019618,12.376254 1.816563,18.532811 0.07177,-0.887053 0.141968,-1.774045 0.210667,-2.66095 0.438097,-5.373869 0.773693,-10.760658 0.996013,-16.152846 -0.233026,1.425918 -0.497402,2.84922 -0.790176,4.268066 -0.838284,3.8359 -1.769216,7.6755 -2.86831,11.485432 0.196838,-5.158233 0.408409,-10.3158 0.635243,-15.472513 z m 3.024237,0.08723 c 0.672945,6.146841 1.680324,12.292927 3.110421,18.367904 0.0361,-6.296754 -0.10281,-12.586494 -0.433749,-18.857333 -0.320884,5.327504 -1.182277,10.681432 -2.433216,15.967661 -0.102026,-5.159863 -0.183051,-10.319368 -0.243456,-15.478232 z m 2.711072,-0.122892 c 1.185102,6.074672 2.787092,12.079817 4.894257,17.945081 -0.608256,-6.254492 -1.429843,-12.475742 -2.481793,-18.651864 0.345609,5.30714 0.04222,10.703173 -0.759206,16.093978 -0.577085,-5.125752 -1.128044,-10.25491 -1.653258,-15.387195 z m 2.487658,-0.347285 c 1.808722,5.896211 4.116788,11.654122 7.012484,17.203382 -0.441474,-1.95508 -0.908565,-3.904107 -1.401826,-5.846694 -1.050344,-4.146846 -2.229486,-8.262218 -3.538583,-12.335801 0.249278,1.111718 0.463188,2.233684 0.642177,3.363186 0.642909,4.161765 0.8374,8.404684 0.656869,12.682997 -1.154831,-5.015278 -2.27841,-10.037728 -3.371121,-15.06707 z m 2.196114,-0.632462 c 2.538683,5.620365 5.699897,11.013515 9.492225,16.000943 -2.316407,-5.859186 -4.918281,-11.587933 -7.809276,-17.153569 2.04639,4.890103 3.279046,10.198959 3.74378,15.64869 -1.846835,-4.818793 -3.655722,-9.651063 -5.426729,-14.496064 z m 1.862176,-0.831353 c 3.396484,5.154937 7.419879,9.912738 12.078759,14.094899 -3.30381,-5.344454 -6.901948,-10.485482 -10.798065,-15.390408 2.989153,4.37489 5.1255,9.362829 6.454855,14.685937 -2.617319,-4.440217 -5.195812,-8.903943 -7.735549,-13.390428 z m 1.51645,-1.014008 c 2.249291,2.356095 4.675875,4.552934 7.281029,6.563951 2.31001,1.782709 4.75098,3.408407 7.30434,4.876922 -4.31742,-4.570889 -8.90157,-8.858579 -13.719638,-12.860681 2.522575,2.426419 4.762348,5.167197 6.638628,8.212223 0.96162,1.560787 1.82418,3.19328 2.58947,4.886647 -3.40429,-3.859733 -6.768876,-7.753003 -10.093829,-11.679062 z m 1.154268,-1.192662 c 5.071861,3.478636 10.661171,6.249743 16.589171,8.31165 -5.1348,-3.632368 -10.46302,-6.975507 -15.95187,-10.027027 4.42442,2.952396 8.39714,6.655974 11.63866,11.075708 -4.12308,-3.079947 -8.215316,-6.20007 -12.275961,-9.360331 z m 0.964101,-1.546014 c 5.66465,2.431329 11.67674,4.157336 17.85753,5.176353 -4.44911,-2.079047 -8.97124,-3.978633 -13.55083,-5.697624 -1.293785,-0.487265 -2.591631,-0.961243 -3.893391,-1.42213 0.332602,0.153663 0.663978,0.310598 0.994086,0.470854 4.459315,2.128374 8.680095,4.932852 12.436875,8.385183 -4.63579,-2.263562 -9.2508,-4.567786 -13.84427,-6.912636 z m 0.763794,-1.832297 c 6.023126,1.380532 12.189426,2.09906 18.428426,2.259113 -6.02839,-1.747544 -12.11951,-3.247708 -18.2592,-4.518679 5.0813,1.606513 10.00068,3.79536 14.62904,6.715827 -4.94269,-1.447927 -9.87555,-2.933207 -14.798266,-4.456261 z m 0.531468,-2.198449 c 6.142258,0.471931 12.362878,0.381798 18.591368,-0.166873 -6.21391,-0.978908 -12.45853,-1.750808 -18.719709,-2.333887 5.241079,1.088789 10.414709,2.65811 15.391809,4.857246 -5.09357,-0.753674 -10.1815,-1.539029 -15.263468,-2.356486 z m 0.239587,-2.481519 c 6.178141,-0.287449 12.369821,-1.037025 18.504561,-2.145199 -6.28819,-0.342765 -12.57508,-0.518894 -18.846511,-0.546575 5.289101,0.66896 10.605231,1.716648 15.819301,3.29235 -5.16067,-0.174044 -10.31989,-0.374095 -15.477351,-0.600576 z"
     style="opacity:1;fill:none;fill-opacity:0.98823529;fill-rule:evenodd;stroke:url(#radialGradient5194);stroke-width:0.72173148;stroke-linecap:round;stroke-miterlimit:4;stroke-dasharray:none"
     inkscape:label="ability_green"
     sodipodi:insensitive="true" />
  <g
     id="g933"
     inkscape:label="sphere"
     sodipodi:insensitive="true">
    <rect
       y="-4.6407723"
       x="-32.907452"
       height="67.73333"
       width="67.73333"
       id="rect890"
       style="opacity:1;fill:#000000;fill-opacity:0;stroke-width:0.2;stroke-miterlimit:4;stroke-dasharray:none"
       inkscape:label="back" />
    <path
       sodipodi:nodetypes="cccccccccccccccccc"
       inkscape:connector-curvature="0"
       d="m 18.490327,20.322418 c 2.491313,6.861324 2.107608,13.183581 -0.970096,19.000714 l 5.449492,2.670789 c 3.914586,-8.955446 3.148688,-16.903467 0.121781,-24.236722 l 4.65215,-2.555503 c 5.020597,10.365974 4.167754,19.882776 -0.430715,28.858041 L 22.987745,41.975898 17.527696,39.341154 C 20.636033,33.40808 20.951139,27.06766 18.490327,20.322418 Z m -4.65902,2.668153 13.926784,-7.830117 c 1.72252,3.203293 2.495654,6.464606 3.065994,9.783118 l -15.799108,2.186912 c 0.342342,3.221171 0.04822,3.662318 -0.236472,5.691308 l 15.358739,4.038276 c -0.683708,3.150064 -1.731119,5.330253 -2.904326,7.174986 L 12.926739,37.124278 c 2.367096,-3.626689 3.120867,-9.112453 0.904568,-14.133707 z"
       style="fill:none;stroke:#c83737;stroke-width:1;stroke-linecap:butt;stroke-linejoin:miter;stroke-miterlimit:4;stroke-dasharray:none;stroke-opacity:1"
       id="path894"
       inkscape:label="grid" />
  </g>
</svg>
